<?xml version="1.0" standalone="no"?>
<!DOCTYPE svg PUBLIC "-//W3C//DTD SVG 20010904//EN"
 "http://www.w3.org/TR/2001/REC-SVG-20010904/DTD/svg10.dtd">
<svg version="1.0" xmlns="http://www.w3.org/2000/svg"
 width="1133.000000pt" height="630.000000pt" viewBox="0 0 1133.000000 630.000000"
 preserveAspectRatio="xMidYMid meet">
<metadata>
Created by potrace 1.16, written by Peter Selinger 2001-2019
</metadata>
<g transform="translate(0.000000,630.000000) scale(0.100000,-0.100000)"
fill="#000000" stroke="none">
<path d="M4525 4584 c-116 -12 -262 -38 -363 -65 -427 -112 -762 -363 -930
-696 l-32 -62 -50 34 c-88 59 -152 79 -265 79 -138 1 -191 -18 -271 -98 -67
-67 -98 -131 -116 -244 l-11 -62 -51 7 c-28 5 -119 8 -202 8 l-150 0 -77 -38
c-81 -40 -126 -85 -167 -166 -24 -48 -64 -195 -75 -278 -7 -52 -7 -52 -81 -99
-97 -60 -187 -144 -213 -198 -24 -49 -27 -115 -7 -155 48 -92 229 -176 406
-188 49 -3 92 -11 100 -19 30 -26 105 -45 312 -79 289 -48 280 -44 335 -129
86 -133 208 -224 353 -261 50 -13 93 -16 190 -12 148 5 236 29 397 109 l102
51 118 -79 c216 -144 423 -236 597 -265 95 -16 293 -6 376 19 181 54 372 167
552 326 97 86 98 86 104 58 34 -161 104 -248 259 -323 89 -43 191 -72 323 -91
114 -17 520 -16 682 0 445 46 1017 165 1400 291 l147 48 86 -42 c398 -194 896
-155 1150 91 l52 51 120 18 c257 38 471 105 533 166 65 64 30 136 -95 202
-154 80 -453 143 -560 119 l-43 -10 0 45 c0 105 -45 175 -143 222 -95 46 -170
55 -420 48 l-217 -7 6 69 c12 127 -28 272 -94 338 -60 59 -115 78 -227 77 -62
0 -125 -7 -165 -18 -95 -25 -257 -108 -317 -161 l-53 -47 0 62 c0 85 -26 191
-67 280 -53 112 -174 229 -303 293 -175 87 -405 126 -622 107 -270 -23 -486
-118 -558 -244 -19 -32 -30 -44 -30 -32 0 43 -34 155 -71 234 -51 112 -109
190 -210 287 -215 206 -516 342 -899 407 -111 18 -447 32 -545 22z"/>
</g>
</svg>
