<?xml version="1.0" standalone="no"?>
<!DOCTYPE svg PUBLIC "-//W3C//DTD SVG 20010904//EN"
 "http://www.w3.org/TR/2001/REC-SVG-20010904/DTD/svg10.dtd">
<svg version="1.0" xmlns="http://www.w3.org/2000/svg"
 width="1108.000000pt" height="623.000000pt" viewBox="0 0 1108.000000 623.000000"
 preserveAspectRatio="xMidYMid meet">
<metadata>
Created by potrace 1.16, written by Peter Selinger 2001-2019
</metadata>
<g transform="translate(0.000000,623.000000) scale(0.100000,-0.100000)"
fill="#000000" stroke="none">
<path d="M7330 4753 c-112 -20 -226 -62 -314 -117 -101 -62 -161 -91 -246
-117 -82 -25 -142 -27 -555 -19 -167 4 -212 1 -270 -13 -168 -42 -270 -94
-442 -223 -154 -117 -197 -119 -398 -20 -192 94 -216 101 -370 100 -114 0
-140 -4 -215 -28 -107 -36 -232 -98 -383 -192 -66 -41 -123 -74 -128 -74 -5 0
-9 8 -9 18 0 10 -16 50 -35 90 -94 196 -325 342 -657 414 -135 29 -434 36
-586 14 -271 -40 -477 -132 -622 -276 -120 -121 -184 -250 -197 -405 l-6 -71
-96 -11 c-330 -40 -603 -214 -651 -414 -30 -125 22 -284 122 -374 28 -25 100
-71 160 -101 112 -58 132 -77 126 -121 -3 -23 16 -41 159 -152 401 -313 595
-379 983 -336 166 18 335 23 387 11 25 -6 45 -26 92 -91 137 -188 298 -288
546 -339 39 -8 153 -26 255 -40 298 -42 350 -58 901 -285 256 -105 419 -138
628 -128 184 9 329 47 549 144 135 59 255 93 520 147 502 103 728 191 870 338
83 86 116 155 137 291 6 34 9 38 28 33 12 -3 27 -6 34 -6 6 0 42 -21 80 -47
115 -78 139 -86 303 -91 189 -6 304 16 580 108 293 99 361 114 495 110 290 -8
396 2 562 56 207 66 380 189 440 312 24 50 28 68 28 147 -1 105 -21 154 -102
248 -190 220 -713 514 -1036 581 -51 11 -79 24 -113 51 -24 20 -131 141 -238
268 -342 409 -456 500 -726 576 -181 50 -421 64 -590 34z"/>
</g>
</svg>
