<?xml version="1.0" standalone="no"?>
<!DOCTYPE svg PUBLIC "-//W3C//DTD SVG 20010904//EN"
 "http://www.w3.org/TR/2001/REC-SVG-20010904/DTD/svg10.dtd">
<svg version="1.0" xmlns="http://www.w3.org/2000/svg"
 width="1280.000000pt" height="1029.000000pt" viewBox="0 0 1280.000000 1029.000000"
 preserveAspectRatio="xMidYMid meet">
<metadata>
Created by potrace 1.16, written by Peter Selinger 2001-2019
</metadata>
<g transform="translate(0.000000,1029.000000) scale(0.100000,-0.100000)"
fill="#000000" stroke="none">
<path d="M3260 10080 l0 -110 75 0 75 0 0 110 0 110 -75 0 -75 0 0 -110z"/>
<path d="M10400 9970 l0 -110 75 0 75 0 0 110 0 110 -75 0 -75 0 0 -110z"/>
<path d="M3030 9885 l0 -75 110 0 110 0 0 75 0 75 -110 0 -110 0 0 -75z"/>
<path d="M3420 9885 l0 -75 110 0 110 0 0 75 0 75 -110 0 -110 0 0 -75z"/>
<path d="M10160 9775 l0 -75 110 0 110 0 0 75 0 75 -110 0 -110 0 0 -75z"/>
<path d="M10550 9775 l0 -75 115 0 115 0 0 75 0 75 -115 0 -115 0 0 -75z"/>
<path d="M3260 9690 l0 -110 75 0 75 0 0 110 0 110 -75 0 -75 0 0 -110z"/>
<path d="M10390 9580 l0 -110 75 0 75 0 0 110 0 110 -75 0 -75 0 0 -110z"/>
<path d="M2040 9525 l0 -65 65 0 65 0 0 65 0 65 -65 0 -65 0 0 -65z"/>
<path d="M2028 9316 c-5 -80 -42 -174 -92 -233 -45 -54 -144 -96 -237 -101
l-79 -5 0 -67 0 -68 73 -4 c198 -12 324 -136 335 -330 l5 -78 67 0 67 0 5 78
c3 59 12 92 36 142 59 124 146 181 288 188 l84 5 0 52 c0 30 3 60 6 69 5 13
-2 16 -39 16 -104 0 -216 41 -276 101 -59 58 -101 172 -101 269 l0 40 -69 0
-68 0 -5 -74z m172 -359 c24 -20 48 -37 53 -37 6 0 -8 -13 -30 -29 -40 -29
-113 -108 -113 -123 0 -19 -19 -5 -43 31 -14 21 -46 54 -71 72 -26 18 -46 35
-46 38 0 3 16 17 36 31 20 13 55 48 76 77 l40 53 28 -38 c15 -21 47 -55 70
-75z"/>
<path d="M1410 8910 l0 -70 65 0 65 0 0 70 0 70 -65 0 -65 0 0 -70z"/>
<path d="M2650 8915 l0 -65 65 0 65 0 0 65 0 65 -65 0 -65 0 0 -65z"/>
<path d="M10952 8817 c-29 -29 -52 -57 -52 -63 0 -5 25 -34 55 -64 l55 -54 55
54 c30 30 55 59 55 65 0 10 -101 115 -111 115 -2 0 -28 -24 -57 -53z"/>
<path d="M10790 8655 l-54 -55 59 -60 59 -60 53 52 c29 29 53 57 53 63 0 10
-101 115 -111 115 -2 0 -29 -25 -59 -55z"/>
<path d="M11117 8652 l-57 -58 58 -57 58 -57 59 60 59 60 -54 55 c-30 30 -57
55 -60 55 -3 0 -31 -26 -63 -58z"/>
<path d="M10962 8497 c-29 -29 -52 -57 -52 -63 0 -13 93 -104 106 -104 5 0 34
25 64 55 l54 55 -54 55 c-30 30 -57 55 -60 55 -3 0 -29 -24 -58 -53z"/>
<path d="M2030 8275 l0 -65 65 0 65 0 0 65 0 65 -65 0 -65 0 0 -65z"/>
<path d="M5553 8246 c-292 -56 -558 -230 -718 -470 -54 -82 -117 -206 -130
-258 l-7 -26 -64 24 c-384 144 -824 -26 -1001 -387 -41 -84 -52 -98 -73 -98
-52 -2 -208 -40 -275 -66 -254 -102 -445 -309 -530 -575 -37 -114 -46 -323
-21 -451 32 -160 109 -307 225 -431 82 -87 163 -149 258 -197 61 -30 198 -73
275 -86 35 -5 37 -8 43 -53 14 -103 58 -242 109 -348 174 -355 495 -591 886
-650 142 -21 4408 -21 4550 0 511 77 917 481 990 984 19 129 8 355 -23 473
-112 425 -430 741 -856 850 -41 11 -105 22 -141 25 l-65 6 0 192 c-1 158 -5
208 -23 293 -63 292 -185 516 -397 729 -205 206 -426 329 -714 395 -126 30
-391 37 -536 15 -205 -32 -422 -118 -597 -238 l-87 -59 -43 47 c-165 180 -335
284 -566 346 -100 26 -362 34 -469 14z m385 -172 c200 -41 400 -158 525 -306
l40 -48 -39 -42 c-124 -135 -228 -309 -289 -481 -23 -63 -31 -77 -44 -71 -326
142 -642 139 -941 -11 -41 -20 -105 -59 -141 -86 -75 -55 -199 -182 -247 -251
-36 -52 -122 -225 -122 -244 0 -14 -5 -15 -153 -34 -506 -64 -927 -492 -990
-1007 -9 -73 -15 -93 -27 -93 -38 0 -142 33 -215 70 -250 123 -406 375 -406
655 0 379 289 697 665 732 39 3 74 11 78 17 5 8 8 7 8 -1 0 -8 14 -13 38 -13
38 0 39 0 51 52 16 73 72 183 125 249 144 178 387 269 607 225 97 -20 160 -47
266 -112 60 -38 77 -44 84 -33 5 8 9 21 9 30 1 79 92 315 160 414 132 193 354
339 590 389 90 20 273 20 368 0z m1842 -115 c516 -101 908 -489 1015 -1004 26
-122 30 -310 11 -438 -9 -59 -16 -123 -16 -141 l0 -33 128 0 c103 -1 146 -6
227 -27 177 -46 325 -128 457 -254 131 -125 231 -293 280 -472 20 -74 23 -107
22 -260 0 -162 -2 -182 -28 -265 -108 -353 -368 -605 -725 -703 l-96 -27
-2205 -3 c-1605 -2 -2227 0 -2285 8 -607 87 -999 690 -829 1278 26 91 85 215
137 291 45 67 173 197 242 246 84 60 210 121 309 149 99 29 269 50 331 41 l44
-7 21 73 c47 158 118 279 229 390 160 159 350 244 576 256 195 10 366 -38 540
-151 48 -31 89 -55 92 -52 3 2 18 60 34 127 16 68 46 161 66 208 240 569 829
887 1423 770z"/>
<path d="M7910 7555 l0 -85 75 0 75 0 0 85 0 85 -75 0 -75 0 0 -85z"/>
<path d="M7910 7250 l0 -80 75 0 75 0 0 80 0 80 -75 0 -75 0 0 -80z"/>
<path d="M8180 7250 l0 -80 80 0 80 0 0 80 0 80 -80 0 -80 0 0 -80z"/>
<path d="M7910 6925 l0 -85 75 0 75 0 0 85 0 85 -75 0 -75 0 0 -85z"/>
<path d="M8180 6925 l0 -85 80 0 80 0 0 85 0 85 -80 0 -80 0 0 -85z"/>
<path d="M8490 6925 l0 -85 75 0 75 0 0 85 0 85 -75 0 -75 0 0 -85z"/>
<path d="M4830 4565 l0 -85 80 0 80 0 0 85 0 85 -80 0 -80 0 0 -85z"/>
<path d="M5110 4565 l0 -85 80 0 80 0 0 85 0 85 -80 0 -80 0 0 -85z"/>
<path d="M4959 3579 c-34 -105 -57 -194 -53 -199 13 -11 144 -53 150 -47 2 2
33 91 69 196 44 132 60 193 52 196 -62 23 -133 45 -143 45 -9 0 -36 -71 -75
-191z"/>
<path d="M5611 3579 c-35 -105 -59 -194 -55 -199 13 -11 144 -53 150 -47 2 2
33 91 69 196 44 132 60 193 52 196 -58 21 -132 45 -141 45 -6 0 -40 -86 -75
-191z"/>
<path d="M6277 3576 l-65 -195 80 -27 c43 -14 81 -24 83 -23 5 6 125 374 125
385 0 9 -122 54 -147 54 -6 0 -40 -88 -76 -194z"/>
<path d="M7005 3758 c-32 -84 -123 -372 -120 -377 5 -9 154 -56 159 -50 6 7
128 391 124 394 -7 6 -133 45 -145 45 -8 0 -16 -6 -18 -12z"/>
<path d="M7611 3579 c-35 -105 -59 -194 -55 -199 17 -15 146 -52 154 -44 9 10
133 385 128 389 -5 4 -145 45 -155 45 -5 0 -37 -86 -72 -191z"/>
<path d="M8280 3585 c-34 -102 -60 -191 -57 -198 5 -13 145 -62 153 -54 3 2
33 91 69 196 44 132 60 193 52 196 -61 23 -132 45 -143 45 -7 0 -38 -76 -74
-185z"/>
<path d="M4824 3167 c-15 -41 -124 -373 -124 -378 0 -8 151 -61 157 -55 5 5
133 389 130 391 -1 1 -37 14 -80 28 -56 19 -79 23 -83 14z"/>
<path d="M5474 3167 c-15 -41 -124 -373 -124 -378 0 -11 153 -60 161 -51 9 10
132 382 128 386 -2 2 -39 15 -82 29 -56 19 -79 23 -83 14z"/>
<path d="M6080 2985 c-36 -114 -59 -199 -54 -204 13 -12 144 -54 150 -48 6 6
135 390 131 392 -1 1 -33 13 -72 25 -38 13 -75 25 -81 27 -5 2 -38 -82 -74
-192z"/>
<path d="M6760 3019 c-28 -87 -57 -176 -65 -198 l-14 -40 80 -26 c44 -15 82
-25 83 -24 10 12 129 389 124 394 -3 3 -40 16 -82 29 l-76 24 -50 -159z"/>
<path d="M7419 2992 c-34 -103 -64 -192 -66 -198 -5 -14 148 -68 158 -56 9 10
132 382 128 386 -2 2 -39 15 -81 29 l-77 25 -62 -186z"/>
<path d="M8146 3172 c-14 -26 -127 -385 -122 -389 8 -8 149 -53 153 -49 5 5
133 389 130 391 -12 10 -158 52 -161 47z"/>
<path d="M4625 2569 c-15 -42 -125 -374 -125 -380 0 -11 153 -60 161 -51 6 6
129 373 129 385 0 3 -30 15 -67 28 -38 12 -74 24 -80 27 -7 2 -15 -2 -18 -9z"/>
<path d="M5220 2393 c-35 -103 -65 -193 -67 -199 -5 -14 148 -68 158 -56 7 7
129 371 129 384 0 3 -30 16 -67 29 -38 12 -73 24 -79 26 -8 3 -36 -67 -74
-184z"/>
<path d="M5944 2567 c-15 -41 -124 -373 -124 -378 0 -8 151 -61 157 -55 7 7
133 390 129 393 -2 2 -38 14 -80 27 -55 17 -79 21 -82 13z"/>
<path d="M6552 2392 c-34 -103 -62 -193 -62 -199 0 -9 150 -68 155 -60 6 7
125 374 125 384 0 6 -30 21 -67 34 -38 12 -73 24 -78 26 -6 2 -38 -81 -73
-185z"/>
<path d="M7216 2384 c-36 -109 -65 -198 -63 -199 1 -1 37 -14 80 -28 56 -19
79 -23 83 -14 15 41 124 373 124 378 0 4 -30 17 -67 30 -38 12 -73 24 -79 26
-8 3 -37 -71 -78 -193z"/>
<path d="M7945 2567 c-16 -41 -125 -373 -125 -378 0 -11 153 -60 161 -51 4 4
32 87 63 184 31 98 59 184 62 192 5 13 -10 20 -144 62 -7 2 -15 -2 -17 -9z"/>
<path d="M11010 2015 l0 -115 75 0 75 0 0 115 0 115 -75 0 -75 0 0 -115z"/>
<path d="M1740 1865 l0 -115 75 0 75 0 0 115 0 115 -75 0 -75 0 0 -115z"/>
<path d="M10770 1825 l0 -75 115 0 115 0 0 75 0 75 -115 0 -115 0 0 -75z"/>
<path d="M11170 1825 l0 -75 110 0 110 0 0 75 0 75 -110 0 -110 0 0 -75z"/>
<path d="M1510 1675 l0 -75 110 0 110 0 0 75 0 75 -110 0 -110 0 0 -75z"/>
<path d="M1900 1670 l0 -70 110 0 110 0 0 70 0 70 -110 0 -110 0 0 -70z"/>
<path d="M11010 1630 l0 -110 75 0 75 0 0 110 0 110 -75 0 -75 0 0 -110z"/>
<path d="M1740 1480 l0 -110 75 0 75 0 0 110 0 110 -75 0 -75 0 0 -110z"/>
<path d="M9780 1465 l0 -65 70 0 70 0 0 65 0 65 -70 0 -70 0 0 -65z"/>
<path d="M9777 1255 c-4 -55 -14 -94 -38 -146 -56 -122 -154 -185 -306 -196
l-73 -6 0 -62 0 -62 73 -6 c205 -16 330 -141 345 -344 l5 -73 69 0 c64 0 69 2
63 19 -10 34 15 154 45 218 54 110 152 171 291 180 l79 6 0 63 0 63 -57 6
c-32 3 -88 15 -124 25 -139 41 -229 173 -229 338 l0 52 -69 0 -68 0 -6 -75z
m106 -296 c16 -22 48 -54 73 -72 24 -18 43 -34 43 -37 0 -3 -18 -18 -40 -34
-22 -15 -56 -50 -76 -76 l-36 -48 -39 49 c-21 27 -56 61 -78 75 l-39 26 49 39
c28 22 62 57 76 79 15 22 29 40 33 40 3 0 19 -18 34 -41z"/>
<path d="M10400 850 l0 -70 65 0 65 0 0 70 0 70 -65 0 -65 0 0 -70z"/>
<path d="M9160 845 l0 -65 65 0 65 0 0 65 0 65 -65 0 -65 0 0 -65z"/>
<path d="M2302 717 c-29 -29 -52 -57 -52 -63 0 -5 25 -34 55 -64 l55 -54 55
54 c30 30 55 59 55 65 0 10 -101 115 -111 115 -2 0 -28 -24 -57 -53z"/>
<path d="M2142 557 c-29 -29 -52 -57 -52 -63 0 -5 25 -34 55 -64 l55 -54 55
54 c30 30 55 59 55 65 0 10 -101 115 -111 115 -2 0 -28 -24 -57 -53z"/>
<path d="M2467 552 l-57 -58 60 -59 60 -60 57 58 58 57 -60 60 -60 60 -58 -58z"/>
<path d="M2307 392 l-57 -58 60 -59 60 -59 55 54 c30 30 55 59 55 65 0 10
-101 115 -111 115 -2 0 -30 -26 -62 -58z"/>
<path d="M9770 261 c0 -10 3 -39 6 -65 l7 -46 63 0 64 0 0 65 0 65 -70 0 c-62
0 -70 -2 -70 -19z"/>
</g>
</svg>
