<?xml version="1.0" standalone="no"?>
<!DOCTYPE svg PUBLIC "-//W3C//DTD SVG 20010904//EN"
 "http://www.w3.org/TR/2001/REC-SVG-20010904/DTD/svg10.dtd">
<svg version="1.0" xmlns="http://www.w3.org/2000/svg"
 width="1098.000000pt" height="924.000000pt" viewBox="0 0 1098.000000 924.000000"
 preserveAspectRatio="xMidYMid meet">
<metadata>
Created by potrace 1.16, written by Peter Selinger 2001-2019
</metadata>
<g transform="translate(0.000000,924.000000) scale(0.100000,-0.100000)"
fill="#000000" stroke="none">
<path d="M3550 7825 l0 -295 105 0 105 0 0 295 0 295 -105 0 -105 0 0 -295z"/>
<path d="M2660 7922 c-47 -19 -86 -36 -87 -37 -3 -1 218 -537 223 -544 5 -6
194 71 194 79 0 23 -221 535 -232 537 -7 1 -51 -15 -98 -35z"/>
<path d="M4437 7703 c-58 -142 -109 -265 -112 -274 -5 -12 16 -24 89 -54 53
-21 98 -37 100 -34 13 14 224 535 218 541 -7 7 -172 78 -182 78 -3 0 -54 -116
-113 -257z"/>
<path d="M1830 7365 l-75 -75 210 -210 210 -210 75 75 75 75 -210 210 -210
210 -75 -75z"/>
<path d="M5195 7230 l-210 -210 75 -75 75 -75 210 210 210 210 -75 75 -75 75
-210 -210z"/>
<path d="M3605 7260 c-234 -16 -456 -78 -680 -190 -175 -87 -298 -174 -442
-313 -563 -544 -712 -1375 -373 -2085 55 -116 151 -266 227 -358 l50 -60 -66
-23 c-235 -83 -494 -261 -658 -453 -327 -382 -454 -881 -353 -1378 60 -294
211 -571 430 -790 227 -227 498 -372 826 -442 l109 -23 2980 -3 c2125 -2 3012
0 3090 8 690 69 1242 555 1401 1235 27 113 28 134 29 345 0 200 -3 237 -23
328 -73 325 -205 566 -436 797 -152 151 -260 229 -439 315 -173 84 -419 150
-554 150 l-44 0 8 73 c11 106 8 348 -7 457 -67 503 -329 966 -725 1282 -169
135 -413 265 -620 331 -630 202 -1329 71 -1840 -342 -27 -23 -53 -41 -56 -41
-4 0 -10 12 -14 27 -25 102 -172 354 -293 504 -248 308 -641 542 -1037 619
-85 16 -356 44 -375 39 -3 -1 -55 -5 -115 -9z m455 -244 c548 -117 981 -491
1180 -1017 l33 -87 -69 -83 c-138 -171 -251 -370 -324 -575 -21 -60 -42 -108
-47 -107 -4 1 -44 18 -88 37 -318 139 -698 152 -1035 36 -375 -130 -718 -463
-850 -827 l-22 -61 -47 -6 c-25 -3 -74 -8 -107 -11 l-61 -7 -64 71 c-96 108
-183 234 -243 356 -262 525 -224 1117 101 1610 85 128 290 335 418 422 211
143 461 238 715 273 118 16 381 4 510 -24z m2955 -690 c203 -37 357 -89 534
-182 325 -169 594 -446 757 -779 173 -354 222 -737 143 -1125 -10 -52 -19
-102 -19 -111 0 -13 21 -15 153 -15 171 -1 284 -17 430 -65 347 -113 640 -363
810 -691 209 -404 195 -922 -34 -1312 -209 -353 -555 -597 -954 -672 -96 -18
-207 -19 -3115 -19 -2855 0 -3020 1 -3103 18 -569 116 -989 533 -1108 1100
-28 133 -31 359 -5 497 90 497 434 901 909 1069 148 52 273 73 439 75 l147 1
6 33 c11 61 57 186 98 267 201 402 586 652 1032 671 266 12 497 -55 744 -216
52 -34 97 -57 101 -53 4 4 19 63 34 131 115 524 430 945 896 1195 193 104 414
171 660 201 70 8 367 -3 445 -18z"/>
<path d="M7190 5785 l0 -105 105 0 105 0 0 105 0 105 -105 0 -105 0 0 -105z"/>
<path d="M7190 5365 l0 -105 105 0 105 0 0 105 0 105 -105 0 -105 0 0 -105z"/>
<path d="M7560 5365 l0 -105 105 0 105 0 0 105 0 105 -105 0 -105 0 0 -105z"/>
<path d="M7190 4925 l0 -105 105 0 105 0 0 105 0 105 -105 0 -105 0 0 -105z"/>
<path d="M7560 4925 l0 -105 105 0 105 0 0 105 0 105 -105 0 -105 0 0 -105z"/>
<path d="M7980 4925 l0 -105 105 0 105 0 0 105 0 105 -105 0 -105 0 0 -105z"/>
<path d="M2780 1780 l0 -100 95 0 95 0 0 100 0 100 -95 0 -95 0 0 -100z"/>
<path d="M3120 1780 l0 -100 100 0 100 0 0 100 0 100 -100 0 -100 0 0 -100z"/>
<path d="M5725 6669 c-148 -55 -271 -101 -272 -103 -4 -4 58 -178 67 -189 5
-6 546 184 555 195 5 6 -68 198 -74 197 -3 0 -127 -45 -276 -100z"/>
<path d="M1289 6573 c-12 -27 -29 -69 -39 -95 l-19 -46 270 -112 c154 -64 274
-109 279 -104 16 16 79 179 72 185 -11 10 -519 219 -531 219 -7 0 -21 -21 -32
-47z"/>
<path d="M1080 5545 l0 -105 295 0 295 0 0 105 0 105 -295 0 -295 0 0 -105z"/>
<path d="M1505 4768 c-148 -61 -271 -112 -273 -113 -7 -6 76 -190 85 -190 5 0
129 49 275 109 l266 109 -19 51 c-11 28 -30 72 -42 98 l-22 47 -270 -111z"/>
</g>
</svg>
