<svg xmlns="http://www.w3.org/2000/svg" viewBox="0 0 64 80" x="0px" y="0px"><title>Sun</title><path d="M19.74072,46H20.669v1h-.92823Zm-1.73,1h.92774V46h-.92774ZM41.94629,31.2793h.99853v-1h-.99853Zm-1.86279,0h.999v-1h-.999Zm1.86279-2.2168h.99853v-1h-.99853ZM44.019,31.2793h.99854v-1H44.019ZM40.0835,26.98047h.999v-1h-.999Zm0,2.082h.999v-1h-.999ZM55,41.72949a7.95041,7.95041,0,0,1-7.94141,7.94141H18.43749a7.93886,7.93886,0,0,1-2.34362-15.52484,9.01547,9.01547,0,1,1,15.18927-9.06189,9.79632,9.79632,0,0,1,16.17975,8.71368A7.9523,7.9523,0,0,1,55,41.72949ZM17.22058,33.89008a7.91107,7.91107,0,0,1,1.07874-.101,7.07451,7.07451,0,0,1,10.02978-4.0459,9.73367,9.73367,0,0,1,2.16168-3.871,8.01643,8.01643,0,1,0-13.35406,7.93842C17.16425,33.83807,17.19287,33.86316,17.22058,33.89008ZM54,41.72949a6.94941,6.94941,0,0,0-6.94141-6.9414l-.80517.02929.127-.62011a8.80278,8.80278,0,0,0-17.23828-3.57715l-.15088.72265-.61475-.4082a6.07252,6.07252,0,0,0-9.22509,3.49512l-.103.38476-.61085-.02636a6.94141,6.94141,0,1,0,0,13.88281h28.6211A6.94941,6.94941,0,0,0,54,41.72949ZM19.02832,18.30371,17.917,15.61328l-.92383.38086,1.11133,2.69043Zm12.69482,5.22168,2.73194-1.00293-.34473-.93945-2.73193,1.00293ZM13.35547,31.96191l-.38184-.92382-2.68945,1.11035.38184.92383Zm14.41064-15.957-.92382-.38281-1.11622,2.6875.92383.38281ZM13.36377,23.416l-2.6875-1.11622-.38379.92383L12.98,24.33984Zm9.50439-8.58692h-1v2.91016h1Zm-10.458,12.36817H9.5v1h2.91016Zm19.41113-8.24512-.707-.707-2.05811,2.05761.707.707ZM15.68018,20.30273l-2.05762-2.05761-.707.707,2.05761,2.05762Z"/><text x="0" y="79" fill="#000000" font-size="5px" font-weight="bold" font-family="'Helvetica Neue', Helvetica, Arial-Unicode, Arial, Sans-serif">Created by Jajang Nurrahman</text><text x="0" y="84" fill="#000000" font-size="5px" font-weight="bold" font-family="'Helvetica Neue', Helvetica, Arial-Unicode, Arial, Sans-serif">from the Noun Project</text></svg>