<?xml version="1.0" standalone="no"?>
<!DOCTYPE svg PUBLIC "-//W3C//DTD SVG 20010904//EN"
 "http://www.w3.org/TR/2001/REC-SVG-20010904/DTD/svg10.dtd">
<svg version="1.0" xmlns="http://www.w3.org/2000/svg"
 width="1280.000000pt" height="1033.000000pt" viewBox="0 0 1280.000000 1033.000000"
 preserveAspectRatio="xMidYMid meet">
<metadata>
Created by potrace 1.16, written by Peter Selinger 2001-2019
</metadata>
<g transform="translate(0.000000,1033.000000) scale(0.100000,-0.100000)"
fill="#000000" stroke="none">
<path d="M3260 10120 l0 -110 75 0 75 0 0 110 0 110 -75 0 -75 0 0 -110z"/>
<path d="M10400 10010 l0 -110 75 0 75 0 0 110 0 110 -75 0 -75 0 0 -110z"/>
<path d="M3030 9925 l0 -75 110 0 110 0 0 75 0 75 -110 0 -110 0 0 -75z"/>
<path d="M3420 9925 l0 -75 110 0 110 0 0 75 0 75 -110 0 -110 0 0 -75z"/>
<path d="M10160 9815 l0 -75 110 0 110 0 0 75 0 75 -110 0 -110 0 0 -75z"/>
<path d="M10550 9815 l0 -75 115 0 115 0 0 75 0 75 -115 0 -115 0 0 -75z"/>
<path d="M3260 9730 l0 -110 75 0 75 0 0 110 0 110 -75 0 -75 0 0 -110z"/>
<path d="M10390 9620 l0 -110 75 0 75 0 0 110 0 110 -75 0 -75 0 0 -110z"/>
<path d="M2040 9565 l0 -65 65 0 65 0 0 65 0 65 -65 0 -65 0 0 -65z"/>
<path d="M2028 9356 c-5 -80 -42 -174 -92 -233 -45 -54 -144 -96 -237 -101
l-79 -5 0 -67 0 -68 73 -4 c198 -12 324 -136 335 -330 l5 -78 67 0 67 0 5 78
c3 59 12 92 36 142 59 124 146 181 288 188 l84 5 0 52 c0 30 3 60 6 69 5 13
-2 16 -39 16 -104 0 -216 41 -276 101 -59 58 -101 172 -101 269 l0 40 -69 0
-68 0 -5 -74z m172 -359 c24 -20 48 -37 53 -37 6 0 -8 -13 -30 -29 -40 -29
-113 -108 -113 -123 0 -19 -19 -5 -43 31 -14 21 -46 54 -71 72 -26 18 -46 35
-46 38 0 3 16 17 36 31 20 13 55 48 76 77 l40 53 28 -38 c15 -21 47 -55 70
-75z"/>
<path d="M1410 8950 l0 -70 65 0 65 0 0 70 0 70 -65 0 -65 0 0 -70z"/>
<path d="M2650 8955 l0 -65 65 0 65 0 0 65 0 65 -65 0 -65 0 0 -65z"/>
<path d="M10952 8857 c-29 -29 -52 -57 -52 -63 0 -5 25 -34 55 -64 l55 -54 55
54 c30 30 55 59 55 65 0 10 -101 115 -111 115 -2 0 -28 -24 -57 -53z"/>
<path d="M4887 8637 c-37 -111 -67 -207 -67 -213 0 -12 147 -61 155 -52 3 3
37 98 74 211 l69 206 -76 25 c-43 15 -79 26 -82 26 -3 0 -36 -91 -73 -203z"/>
<path d="M5587 8637 c-37 -111 -67 -207 -67 -213 0 -12 147 -61 155 -52 3 3
37 98 74 211 l69 206 -76 25 c-43 15 -79 26 -82 26 -3 0 -36 -91 -73 -203z"/>
<path d="M6301 8629 c-48 -144 -66 -211 -58 -214 61 -23 133 -45 143 -45 15 0
149 409 137 420 -8 7 -131 50 -144 50 -4 0 -39 -95 -78 -211z"/>
<path d="M7087 8833 c-10 -17 -139 -414 -136 -417 9 -7 135 -46 149 -46 13 0
32 48 80 198 35 108 65 202 67 208 3 7 -24 21 -64 34 -37 13 -73 25 -79 27 -7
2 -14 1 -17 -4z"/>
<path d="M7737 8637 c-37 -111 -67 -207 -67 -213 0 -15 148 -60 159 -48 6 7
97 275 136 401 2 7 -27 22 -73 37 -42 14 -79 26 -82 26 -3 0 -36 -91 -73 -203z"/>
<path d="M8451 8629 c-48 -144 -66 -211 -58 -214 61 -23 132 -45 143 -45 14 0
149 393 141 413 -4 10 -127 57 -149 57 -4 0 -38 -95 -77 -211z"/>
<path d="M10790 8695 l-54 -55 59 -60 59 -60 53 52 c29 29 53 57 53 63 0 10
-101 115 -111 115 -2 0 -29 -25 -59 -55z"/>
<path d="M11117 8692 l-57 -58 58 -57 58 -57 59 60 59 60 -54 55 c-30 30 -57
55 -60 55 -3 0 -31 -26 -63 -58z"/>
<path d="M10962 8537 c-29 -29 -52 -57 -52 -63 0 -13 93 -104 106 -104 5 0 34
25 64 55 l54 55 -54 55 c-30 30 -57 55 -60 55 -3 0 -29 -24 -58 -53z"/>
<path d="M2030 8315 l0 -65 65 0 65 0 0 65 0 65 -65 0 -65 0 0 -65z"/>
<path d="M4671 7988 l-70 -213 81 -27 c45 -15 82 -27 83 -25 6 7 135 404 135
414 0 6 -30 21 -67 34 -38 12 -73 24 -80 26 -7 3 -37 -73 -82 -209z"/>
<path d="M5372 7988 l-70 -213 81 -27 c44 -15 81 -27 82 -25 6 7 135 404 135
414 0 6 -30 21 -67 34 -38 12 -73 24 -80 26 -8 3 -36 -70 -81 -209z"/>
<path d="M6156 8191 c-2 -3 -31 -92 -65 -198 -34 -106 -64 -199 -67 -206 -4
-11 15 -22 72 -41 43 -14 81 -23 85 -18 11 12 142 413 136 418 -10 10 -157 52
-161 45z"/>
<path d="M6810 7999 c-36 -110 -66 -206 -68 -213 -2 -9 24 -23 74 -40 43 -14
79 -24 81 -22 5 5 143 419 140 421 -1 1 -33 13 -72 25 -38 13 -74 24 -80 26
-5 2 -39 -87 -75 -197z"/>
<path d="M7527 7997 c-37 -111 -67 -208 -67 -214 0 -9 150 -68 155 -60 6 7
135 404 135 414 0 6 -30 21 -67 34 -38 12 -73 24 -78 26 -6 2 -41 -88 -78
-200z"/>
<path d="M8241 7988 c-39 -117 -70 -213 -68 -214 10 -9 153 -51 158 -46 7 7
139 402 139 414 0 5 -50 23 -147 53 -7 3 -38 -74 -82 -207z"/>
<path d="M4525 7538 c-25 -65 -134 -402 -131 -405 11 -11 151 -52 157 -46 9
11 142 413 138 418 -6 4 -139 45 -150 45 -5 0 -12 -6 -14 -12z"/>
<path d="M5225 7538 c-25 -65 -134 -402 -131 -405 11 -11 151 -52 157 -46 9
11 142 413 138 417 -8 7 -134 46 -146 46 -8 0 -16 -6 -18 -12z"/>
<path d="M5876 7344 c-37 -113 -64 -209 -60 -214 13 -11 144 -53 150 -47 2 2
36 97 74 211 47 142 65 208 57 211 -58 21 -132 45 -141 45 -6 0 -42 -93 -80
-206z"/>
<path d="M6595 7350 c-37 -111 -65 -206 -62 -213 4 -11 145 -63 152 -55 5 5
135 404 135 414 0 9 -122 54 -147 54 -6 0 -41 -90 -78 -200z"/>
<path d="M7375 7538 c-7 -19 -135 -402 -135 -404 0 -5 161 -56 164 -53 6 7
137 421 134 424 -7 6 -133 45 -145 45 -8 0 -16 -6 -18 -12z"/>
<path d="M8026 7344 c-37 -113 -64 -209 -60 -214 17 -15 146 -52 154 -44 8 9
126 367 132 400 2 13 -15 23 -66 40 -39 13 -75 24 -81 24 -6 0 -41 -93 -79
-206z"/>
<path d="M6290 6786 l0 -95 -42 -5 c-24 -2 -90 -9 -147 -15 -237 -25 -502
-104 -731 -217 -229 -114 -389 -226 -568 -398 -405 -390 -640 -895 -687 -1474
l-6 -82 31 -31 c26 -27 36 -31 66 -26 48 8 60 20 80 80 64 200 236 327 443
327 131 0 237 -47 329 -144 64 -68 108 -157 122 -251 15 -101 62 -137 134
-104 31 15 35 25 52 132 71 458 662 553 867 139 l42 -85 6 -681 c4 -375 7
-962 8 -1306 1 -673 1 -672 55 -778 142 -279 549 -329 757 -93 68 76 119 201
119 288 l0 33 -85 0 c-82 0 -85 -1 -85 -23 0 -92 -82 -210 -175 -253 -70 -33
-171 -33 -240 0 -61 29 -117 84 -147 145 l-23 46 -8 980 c-9 1174 -6 1568 16
1641 52 182 198 314 379 345 261 44 526 -177 528 -439 0 -84 86 -131 144 -79
21 18 28 37 36 97 43 309 369 491 648 360 117 -55 222 -180 252 -303 21 -82
90 -112 146 -64 25 22 27 28 25 98 -4 216 -64 489 -158 724 -177 442 -495 820
-903 1075 -265 166 -614 288 -920 320 -58 6 -124 13 -147 16 l-43 5 0 95 0 94
-85 0 -85 0 0 -94z m-239 -365 c-338 -339 -594 -768 -734 -1231 -35 -115 -87
-348 -87 -389 0 -18 -11 -11 -64 42 -72 72 -184 136 -282 161 -78 20 -229 20
-312 1 -62 -15 -162 -60 -214 -96 l-27 -19 24 87 c192 714 771 1288 1488 1474
65 17 249 54 290 58 4 1 -33 -39 -82 -88z m750 53 c545 -115 1013 -433 1322
-899 111 -167 249 -482 282 -643 l7 -33 -54 35 c-29 19 -84 48 -123 63 -65 26
-80 28 -220 28 -140 0 -155 -2 -220 -28 -80 -32 -158 -81 -221 -139 -30 -28
-45 -36 -48 -27 -3 8 -14 63 -26 122 -46 233 -123 455 -245 702 -135 276 -306
518 -521 743 -114 118 -117 115 67 76z m-202 -189 c296 -307 503 -644 642
-1045 35 -99 89 -297 89 -324 0 -4 -16 4 -35 18 -61 47 -179 97 -267 112 -231
42 -476 -53 -609 -236 -24 -33 -46 -60 -49 -60 -3 0 -25 27 -49 60 -73 100
-173 170 -306 216 -69 23 -96 27 -195 27 -99 0 -126 -4 -195 -27 -44 -15 -105
-43 -135 -61 -30 -18 -56 -32 -58 -30 -6 6 48 203 83 304 141 404 346 736 647
1047 61 63 115 114 119 114 5 0 9 -43 9 -95 l0 -95 85 0 85 0 0 100 c0 55 4
100 9 100 5 0 63 -56 130 -125z"/>
<path d="M6290 6000 l0 -80 85 0 85 0 0 80 0 80 -85 0 -85 0 0 -80z"/>
<path d="M6290 5715 l0 -85 85 0 85 0 0 85 0 85 -85 0 -85 0 0 -85z"/>
<path d="M6290 5430 l0 -80 85 0 85 0 0 80 0 80 -85 0 -85 0 0 -80z"/>
<path d="M6290 5150 l0 -80 85 0 85 0 0 80 0 80 -85 0 -85 0 0 -80z"/>
<path d="M11010 2055 l0 -115 75 0 75 0 0 115 0 115 -75 0 -75 0 0 -115z"/>
<path d="M1740 1905 l0 -115 75 0 75 0 0 115 0 115 -75 0 -75 0 0 -115z"/>
<path d="M10770 1865 l0 -75 115 0 115 0 0 75 0 75 -115 0 -115 0 0 -75z"/>
<path d="M11170 1865 l0 -75 110 0 110 0 0 75 0 75 -110 0 -110 0 0 -75z"/>
<path d="M1510 1715 l0 -75 110 0 110 0 0 75 0 75 -110 0 -110 0 0 -75z"/>
<path d="M1900 1710 l0 -70 110 0 110 0 0 70 0 70 -110 0 -110 0 0 -70z"/>
<path d="M11010 1670 l0 -110 75 0 75 0 0 110 0 110 -75 0 -75 0 0 -110z"/>
<path d="M1740 1520 l0 -110 75 0 75 0 0 110 0 110 -75 0 -75 0 0 -110z"/>
<path d="M9780 1505 l0 -65 70 0 70 0 0 65 0 65 -70 0 -70 0 0 -65z"/>
<path d="M9777 1295 c-4 -55 -14 -94 -38 -146 -56 -122 -154 -185 -306 -196
l-73 -6 0 -62 0 -62 73 -6 c205 -16 330 -141 345 -344 l5 -73 69 0 c64 0 69 2
63 19 -10 34 15 154 45 218 54 110 152 171 291 180 l79 6 0 63 0 63 -57 6
c-32 3 -88 15 -124 25 -139 41 -229 173 -229 338 l0 52 -69 0 -68 0 -6 -75z
m106 -296 c16 -22 48 -54 73 -72 24 -18 43 -34 43 -37 0 -3 -18 -18 -40 -34
-22 -15 -56 -50 -76 -76 l-36 -48 -39 49 c-21 27 -56 61 -78 75 l-39 26 49 39
c28 22 62 57 76 79 15 22 29 40 33 40 3 0 19 -18 34 -41z"/>
<path d="M10400 890 l0 -70 65 0 65 0 0 70 0 70 -65 0 -65 0 0 -70z"/>
<path d="M9160 885 l0 -65 65 0 65 0 0 65 0 65 -65 0 -65 0 0 -65z"/>
<path d="M2302 757 c-29 -29 -52 -57 -52 -63 0 -5 25 -34 55 -64 l55 -54 55
54 c30 30 55 59 55 65 0 10 -101 115 -111 115 -2 0 -28 -24 -57 -53z"/>
<path d="M2142 597 c-29 -29 -52 -57 -52 -63 0 -5 25 -34 55 -64 l55 -54 55
54 c30 30 55 59 55 65 0 10 -101 115 -111 115 -2 0 -28 -24 -57 -53z"/>
<path d="M2467 592 l-57 -58 60 -59 60 -60 57 58 58 57 -60 60 -60 60 -58 -58z"/>
<path d="M2307 432 l-57 -58 60 -59 60 -59 55 54 c30 30 55 59 55 65 0 10
-101 115 -111 115 -2 0 -30 -26 -62 -58z"/>
<path d="M9770 301 c0 -10 3 -39 6 -65 l7 -46 63 0 64 0 0 65 0 65 -70 0 c-62
0 -70 -2 -70 -19z"/>
</g>
</svg>
