<?xml version="1.0" standalone="no"?>
<!DOCTYPE svg PUBLIC "-//W3C//DTD SVG 20010904//EN"
 "http://www.w3.org/TR/2001/REC-SVG-20010904/DTD/svg10.dtd">
<svg version="1.0" xmlns="http://www.w3.org/2000/svg"
 width="243.000000pt" height="190.000000pt" viewBox="0 0 243.000000 190.000000"
 preserveAspectRatio="xMidYMid meet">
<metadata>
Created by potrace 1.16, written by Peter Selinger 2001-2019
</metadata>
<g transform="translate(0.000000,190.000000) scale(0.100000,-0.100000)"
fill="#000000" stroke="none">
<path d="M1290 1645 l0 -65 70 0 70 0 0 65 0 65 -70 0 -70 0 0 -65z"/>
<path d="M1287 1435 c-4 -55 -14 -94 -38 -146 -56 -122 -154 -185 -306 -196
l-73 -6 0 -62 0 -62 73 -6 c205 -16 330 -141 345 -344 l5 -73 69 0 c64 0 69 2
63 19 -10 34 15 154 45 218 54 110 152 171 291 180 l79 6 0 63 0 63 -57 6
c-32 3 -88 15 -124 25 -139 41 -229 173 -229 338 l0 52 -69 0 -68 0 -6 -75z
m106 -296 c16 -22 48 -54 73 -72 24 -18 43 -34 43 -37 0 -3 -18 -18 -40 -34
-22 -15 -56 -50 -76 -76 l-36 -48 -39 49 c-21 27 -56 61 -78 75 l-39 26 49 39
c28 22 62 57 76 79 15 22 29 40 33 40 3 0 19 -18 34 -41z"/>
<path d="M1910 1030 l0 -70 65 0 65 0 0 70 0 70 -65 0 -65 0 0 -70z"/>
<path d="M670 1025 l0 -65 65 0 65 0 0 65 0 65 -65 0 -65 0 0 -65z"/>
<path d="M1280 441 c0 -10 3 -39 6 -65 l7 -46 63 0 64 0 0 65 0 65 -70 0 c-62
0 -70 -2 -70 -19z"/>
</g>
</svg>
