<?xml version="1.0" standalone="no"?>
<!DOCTYPE svg PUBLIC "-//W3C//DTD SVG 20010904//EN"
 "http://www.w3.org/TR/2001/REC-SVG-20010904/DTD/svg10.dtd">
<svg version="1.0" xmlns="http://www.w3.org/2000/svg"
 width="1280.000000pt" height="1038.000000pt" viewBox="0 0 1280.000000 1038.000000"
 preserveAspectRatio="xMidYMid meet">
<metadata>
Created by potrace 1.16, written by Peter Selinger 2001-2019
</metadata>
<g transform="translate(0.000000,1038.000000) scale(0.100000,-0.100000)"
fill="#000000" stroke="none">
<path d="M3260 10170 l0 -110 75 0 75 0 0 110 0 110 -75 0 -75 0 0 -110z"/>
<path d="M10400 10060 l0 -110 75 0 75 0 0 110 0 110 -75 0 -75 0 0 -110z"/>
<path d="M3030 9975 l0 -75 110 0 110 0 0 75 0 75 -110 0 -110 0 0 -75z"/>
<path d="M3420 9975 l0 -75 110 0 110 0 0 75 0 75 -110 0 -110 0 0 -75z"/>
<path d="M10160 9865 l0 -75 110 0 110 0 0 75 0 75 -110 0 -110 0 0 -75z"/>
<path d="M10550 9865 l0 -75 115 0 115 0 0 75 0 75 -115 0 -115 0 0 -75z"/>
<path d="M3260 9780 l0 -110 75 0 75 0 0 110 0 110 -75 0 -75 0 0 -110z"/>
<path d="M10390 9670 l0 -110 75 0 75 0 0 110 0 110 -75 0 -75 0 0 -110z"/>
<path d="M2040 9615 l0 -65 65 0 65 0 0 65 0 65 -65 0 -65 0 0 -65z"/>
<path d="M2028 9406 c-5 -80 -42 -174 -92 -233 -45 -54 -144 -96 -237 -101
l-79 -5 0 -67 0 -68 73 -4 c198 -12 324 -136 335 -330 l5 -78 67 0 67 0 5 78
c3 59 12 92 36 142 59 124 146 181 288 188 l84 5 0 52 c0 30 3 60 6 69 5 13
-2 16 -39 16 -104 0 -216 41 -276 101 -59 58 -101 172 -101 269 l0 40 -69 0
-68 0 -5 -74z m172 -359 c24 -20 48 -37 53 -37 6 0 -8 -13 -30 -29 -40 -29
-113 -108 -113 -123 0 -19 -19 -5 -43 31 -14 21 -46 54 -71 72 -26 18 -46 35
-46 38 0 3 16 17 36 31 20 13 55 48 76 77 l40 53 28 -38 c15 -21 47 -55 70
-75z"/>
<path d="M1410 9000 l0 -70 65 0 65 0 0 70 0 70 -65 0 -65 0 0 -70z"/>
<path d="M2650 9005 l0 -65 65 0 65 0 0 65 0 65 -65 0 -65 0 0 -65z"/>
<path d="M10952 8907 c-29 -29 -52 -57 -52 -63 0 -5 25 -34 55 -64 l55 -54 55
54 c30 30 55 59 55 65 0 10 -101 115 -111 115 -2 0 -28 -24 -57 -53z"/>
<path d="M10790 8745 l-54 -55 59 -60 59 -60 53 52 c29 29 53 57 53 63 0 10
-101 115 -111 115 -2 0 -29 -25 -59 -55z"/>
<path d="M11117 8742 l-57 -58 58 -57 58 -57 59 60 59 60 -54 55 c-30 30 -57
55 -60 55 -3 0 -31 -26 -63 -58z"/>
<path d="M10962 8587 c-29 -29 -52 -57 -52 -63 0 -13 93 -104 106 -104 5 0 34
25 64 55 l54 55 -54 55 c-30 30 -57 55 -60 55 -3 0 -29 -24 -58 -53z"/>
<path d="M2030 8365 l0 -65 65 0 65 0 0 65 0 65 -65 0 -65 0 0 -65z"/>
<path d="M5553 8335 c-369 -67 -701 -339 -830 -680 l-27 -71 -81 27 c-397 137
-838 -53 -1005 -432 l-25 -57 -83 -11 c-385 -54 -688 -335 -767 -712 -20 -92
-19 -279 1 -377 31 -155 110 -305 224 -425 115 -122 233 -198 380 -245 50 -16
165 -42 186 -42 2 0 6 -21 9 -47 14 -104 58 -243 109 -349 157 -321 432 -542
785 -632 l106 -27 2275 0 2275 0 96 27 c307 84 537 243 698 481 139 206 201
413 201 667 0 256 -72 483 -216 687 -100 139 -275 289 -429 366 -115 57 -328
117 -419 117 l-31 0 -1 193 c0 159 -4 209 -22 294 -60 276 -183 508 -376 711
-120 125 -234 209 -391 287 -139 69 -230 102 -366 131 -120 26 -447 27 -569 1
-198 -42 -372 -115 -536 -226 l-90 -60 -100 97 c-175 172 -344 261 -585 307
-98 18 -295 19 -396 0z m392 -174 c200 -41 410 -165 525 -311 l31 -40 -62 -72
c-112 -131 -209 -296 -264 -450 -15 -43 -29 -78 -30 -78 -1 0 -29 12 -61 26
-153 68 -381 98 -558 75 -273 -37 -528 -187 -698 -411 -48 -63 -148 -249 -148
-275 0 -17 -23 -25 -75 -25 -101 0 -308 -56 -430 -117 -168 -84 -346 -242
-450 -397 -101 -152 -176 -357 -191 -523 -8 -83 -5 -82 -99 -58 -146 37 -304
142 -394 262 -104 140 -151 278 -151 448 0 383 284 693 669 731 36 4 69 12 73
18 5 8 8 7 8 -1 0 -8 14 -13 38 -13 38 0 39 1 50 50 28 123 118 262 219 342
121 95 250 141 398 142 139 1 254 -36 381 -121 33 -22 64 -43 71 -46 8 -5 15
11 23 50 57 294 199 514 427 664 201 131 459 179 698 130z m1895 -124 c130
-34 240 -78 337 -134 319 -187 539 -490 618 -853 25 -115 30 -325 11 -449 -9
-58 -16 -120 -16 -139 l0 -35 68 6 c190 15 430 -51 609 -170 192 -127 355
-355 413 -580 148 -572 -224 -1146 -809 -1248 -126 -22 -4406 -22 -4532 0
-598 104 -970 695 -803 1271 114 393 460 681 870 723 52 5 117 7 143 4 l48 -5
33 101 c43 136 115 255 215 356 129 130 274 209 450 246 240 50 475 -1 697
-153 33 -22 63 -36 67 -32 4 5 15 46 25 92 95 460 419 826 859 971 151 51 229
61 422 57 153 -3 194 -7 275 -29z"/>
<path d="M7910 7645 l0 -85 75 0 75 0 0 85 0 85 -75 0 -75 0 0 -85z"/>
<path d="M7910 7335 l0 -85 75 0 75 0 0 85 0 85 -75 0 -75 0 0 -85z"/>
<path d="M8180 7335 l0 -85 80 0 80 0 0 85 0 85 -80 0 -80 0 0 -85z"/>
<path d="M7910 7015 l0 -85 75 0 75 0 0 85 0 85 -75 0 -75 0 0 -85z"/>
<path d="M8180 7015 l0 -85 80 0 80 0 0 85 0 85 -80 0 -80 0 0 -85z"/>
<path d="M8490 7015 l0 -85 75 0 75 0 0 85 0 85 -75 0 -75 0 0 -85z"/>
<path d="M4790 4665 l0 -85 80 0 80 0 0 85 0 85 -80 0 -80 0 0 -85z"/>
<path d="M5070 4665 l0 -85 80 0 80 0 0 85 0 85 -80 0 -80 0 0 -85z"/>
<path d="M4836 3902 c-2 -4 -69 -185 -149 -402 -80 -217 -148 -403 -153 -413
-7 -18 1 -19 173 -15 l180 3 -22 -60 c-92 -246 -265 -723 -265 -732 0 -10 148
-68 155 -61 5 5 375 1016 375 1024 0 4 -79 4 -175 1 -96 -3 -175 -3 -175 1 0
3 47 135 105 292 57 157 105 291 107 299 3 15 -148 76 -156 63z"/>
<path d="M5666 3503 c-82 -225 -151 -414 -154 -422 -4 -11 26 -12 172 -10 97
2 176 1 176 -2 0 -3 -65 -183 -145 -399 -79 -217 -144 -394 -142 -395 12 -8
159 -56 161 -54 1 2 84 227 183 499 100 272 185 504 189 514 7 19 2 19 -174
13 l-181 -6 9 22 c24 57 210 570 210 581 0 6 -30 22 -67 35 -38 13 -73 26 -78
28 -6 2 -77 -180 -159 -404z"/>
<path d="M6790 3907 c0 -2 -67 -187 -150 -412 -82 -224 -150 -413 -150 -418 0
-5 71 -8 175 -5 96 1 175 2 175 2 0 -1 -66 -180 -146 -399 -80 -218 -144 -398
-142 -399 17 -13 153 -55 158 -49 10 11 370 997 370 1013 0 11 -34 12 -175 7
l-174 -6 39 107 c21 59 70 194 109 301 40 107 68 198 64 202 -7 7 -139 59
-149 59 -2 0 -4 -1 -4 -3z"/>
<path d="M7761 3887 c-5 -12 -69 -188 -144 -392 -74 -203 -140 -383 -146 -398
l-11 -29 178 4 179 3 -17 -50 c-10 -27 -75 -204 -144 -393 -69 -189 -126 -347
-126 -350 0 -9 150 -66 156 -59 6 6 374 1009 374 1021 0 6 -66 7 -176 3 -171
-6 -175 -5 -169 14 4 10 53 146 110 302 57 155 101 285 97 288 -4 4 -40 19
-80 33 l-73 26 -8 -23z"/>
<path d="M8595 3499 c-82 -226 -152 -416 -154 -421 -2 -7 58 -9 177 -7 99 3
179 2 177 -1 -9 -15 -285 -775 -285 -786 0 -11 147 -71 154 -63 5 5 376 1019
376 1026 0 4 -79 3 -175 0 -96 -3 -175 -2 -175 2 0 4 47 135 104 292 58 156
106 290 108 297 3 12 -61 42 -137 65 -18 6 -33 -29 -170 -404z"/>
<path d="M11010 2105 l0 -115 75 0 75 0 0 115 0 115 -75 0 -75 0 0 -115z"/>
<path d="M1740 1955 l0 -115 75 0 75 0 0 115 0 115 -75 0 -75 0 0 -115z"/>
<path d="M10770 1915 l0 -75 115 0 115 0 0 75 0 75 -115 0 -115 0 0 -75z"/>
<path d="M11170 1915 l0 -75 110 0 110 0 0 75 0 75 -110 0 -110 0 0 -75z"/>
<path d="M1510 1765 l0 -75 110 0 110 0 0 75 0 75 -110 0 -110 0 0 -75z"/>
<path d="M1900 1760 l0 -70 110 0 110 0 0 70 0 70 -110 0 -110 0 0 -70z"/>
<path d="M11010 1720 l0 -110 75 0 75 0 0 110 0 110 -75 0 -75 0 0 -110z"/>
<path d="M1740 1570 l0 -110 75 0 75 0 0 110 0 110 -75 0 -75 0 0 -110z"/>
<path d="M9780 1555 l0 -65 70 0 70 0 0 65 0 65 -70 0 -70 0 0 -65z"/>
<path d="M9777 1345 c-4 -55 -14 -94 -38 -146 -56 -122 -154 -185 -306 -196
l-73 -6 0 -62 0 -62 73 -6 c205 -16 330 -141 345 -344 l5 -73 69 0 c64 0 69 2
63 19 -10 34 15 154 45 218 54 110 152 171 291 180 l79 6 0 63 0 63 -57 6
c-32 3 -88 15 -124 25 -139 41 -229 173 -229 338 l0 52 -69 0 -68 0 -6 -75z
m106 -296 c16 -22 48 -54 73 -72 24 -18 43 -34 43 -37 0 -3 -18 -18 -40 -34
-22 -15 -56 -50 -76 -76 l-36 -48 -39 49 c-21 27 -56 61 -78 75 l-39 26 49 39
c28 22 62 57 76 79 15 22 29 40 33 40 3 0 19 -18 34 -41z"/>
<path d="M10400 940 l0 -70 65 0 65 0 0 70 0 70 -65 0 -65 0 0 -70z"/>
<path d="M9160 935 l0 -65 65 0 65 0 0 65 0 65 -65 0 -65 0 0 -65z"/>
<path d="M2302 807 c-29 -29 -52 -57 -52 -63 0 -5 25 -34 55 -64 l55 -54 55
54 c30 30 55 59 55 65 0 10 -101 115 -111 115 -2 0 -28 -24 -57 -53z"/>
<path d="M2142 647 c-29 -29 -52 -57 -52 -63 0 -5 25 -34 55 -64 l55 -54 55
54 c30 30 55 59 55 65 0 10 -101 115 -111 115 -2 0 -28 -24 -57 -53z"/>
<path d="M2467 642 l-57 -58 60 -59 60 -60 57 58 58 57 -60 60 -60 60 -58 -58z"/>
<path d="M2307 482 l-57 -58 60 -59 60 -59 55 54 c30 30 55 59 55 65 0 10
-101 115 -111 115 -2 0 -30 -26 -62 -58z"/>
<path d="M9770 351 c0 -10 3 -39 6 -65 l7 -46 63 0 64 0 0 65 0 65 -70 0 c-62
0 -70 -2 -70 -19z"/>
</g>
</svg>
