<?xml version="1.0" standalone="no"?>
<!DOCTYPE svg PUBLIC "-//W3C//DTD SVG 20010904//EN"
 "http://www.w3.org/TR/2001/REC-SVG-20010904/DTD/svg10.dtd">
<svg version="1.0" xmlns="http://www.w3.org/2000/svg"
 width="1280.000000pt" height="1027.000000pt" viewBox="0 0 1280.000000 1027.000000"
 preserveAspectRatio="xMidYMid meet">
<metadata>
Created by potrace 1.16, written by Peter Selinger 2001-2019
</metadata>
<g transform="translate(0.000000,1027.000000) scale(0.100000,-0.100000)"
fill="#000000" stroke="none">
<path d="M3260 10060 l0 -110 75 0 75 0 0 110 0 110 -75 0 -75 0 0 -110z"/>
<path d="M10400 9950 l0 -110 75 0 75 0 0 110 0 110 -75 0 -75 0 0 -110z"/>
<path d="M3030 9865 l0 -75 110 0 110 0 0 75 0 75 -110 0 -110 0 0 -75z"/>
<path d="M3420 9865 l0 -75 110 0 110 0 0 75 0 75 -110 0 -110 0 0 -75z"/>
<path d="M10160 9755 l0 -75 110 0 110 0 0 75 0 75 -110 0 -110 0 0 -75z"/>
<path d="M10550 9755 l0 -75 115 0 115 0 0 75 0 75 -115 0 -115 0 0 -75z"/>
<path d="M3260 9670 l0 -110 75 0 75 0 0 110 0 110 -75 0 -75 0 0 -110z"/>
<path d="M10390 9560 l0 -110 75 0 75 0 0 110 0 110 -75 0 -75 0 0 -110z"/>
<path d="M2040 9505 l0 -65 65 0 65 0 0 65 0 65 -65 0 -65 0 0 -65z"/>
<path d="M2028 9296 c-5 -80 -42 -174 -92 -233 -45 -54 -144 -96 -237 -101
l-79 -5 0 -67 0 -68 73 -4 c198 -12 324 -136 335 -330 l5 -78 67 0 67 0 5 78
c3 59 12 92 36 142 59 124 146 181 288 188 l84 5 0 52 c0 30 3 60 6 69 5 13
-2 16 -39 16 -104 0 -216 41 -276 101 -59 58 -101 172 -101 269 l0 40 -69 0
-68 0 -5 -74z m172 -359 c24 -20 48 -37 53 -37 6 0 -8 -13 -30 -29 -40 -29
-113 -108 -113 -123 0 -19 -19 -5 -43 31 -14 21 -46 54 -71 72 -26 18 -46 35
-46 38 0 3 16 17 36 31 20 13 55 48 76 77 l40 53 28 -38 c15 -21 47 -55 70
-75z"/>
<path d="M1410 8890 l0 -70 65 0 65 0 0 70 0 70 -65 0 -65 0 0 -70z"/>
<path d="M2650 8895 l0 -65 65 0 65 0 0 65 0 65 -65 0 -65 0 0 -65z"/>
<path d="M10952 8797 c-29 -29 -52 -57 -52 -63 0 -5 25 -34 55 -64 l55 -54 55
54 c30 30 55 59 55 65 0 10 -101 115 -111 115 -2 0 -28 -24 -57 -53z"/>
<path d="M10790 8635 l-54 -55 59 -60 59 -60 53 52 c29 29 53 57 53 63 0 10
-101 115 -111 115 -2 0 -29 -25 -59 -55z"/>
<path d="M11117 8632 l-57 -58 58 -57 58 -57 59 60 59 60 -54 55 c-30 30 -57
55 -60 55 -3 0 -31 -26 -63 -58z"/>
<path d="M10962 8477 c-29 -29 -52 -57 -52 -63 0 -13 93 -104 106 -104 5 0 34
25 64 55 l54 55 -54 55 c-30 30 -57 55 -60 55 -3 0 -29 -24 -58 -53z"/>
<path d="M2030 8255 l0 -65 65 0 65 0 0 65 0 65 -65 0 -65 0 0 -65z"/>
<path d="M5486 8225 c-370 -70 -678 -322 -822 -670 -18 -44 -36 -79 -41 -77
-4 1 -39 13 -78 26 -310 108 -665 8 -882 -247 -29 -34 -74 -103 -99 -153 l-47
-91 -84 -12 c-110 -16 -232 -57 -330 -112 -104 -59 -264 -216 -323 -318 -156
-270 -169 -592 -35 -866 125 -256 361 -438 634 -489 47 -9 85 -17 86 -19 1 -1
7 -38 14 -82 28 -172 105 -351 213 -497 169 -227 401 -380 687 -451 l86 -21
2215 -4 c1635 -2 2240 0 2310 8 660 81 1122 700 1015 1360 -62 378 -312 710
-660 874 -111 53 -305 106 -388 106 l-33 0 0 178 c0 203 -16 308 -69 470 -142
426 -472 764 -889 911 -182 64 -250 75 -481 76 -185 0 -223 -3 -314 -23 -188
-42 -346 -110 -509 -219 l-93 -62 -67 71 c-137 146 -334 263 -527 314 -126 33
-362 42 -489 19z m429 -179 c190 -52 372 -163 484 -296 l43 -51 -56 -60 c-105
-113 -209 -286 -267 -444 -18 -49 -34 -91 -34 -93 -1 -1 -35 12 -76 29 -140
58 -226 73 -404 73 -130 0 -176 -4 -245 -21 -332 -84 -601 -314 -726 -621 -12
-31 -28 -58 -36 -62 -7 -4 -47 -10 -88 -13 -378 -31 -745 -286 -923 -642 -67
-134 -93 -226 -123 -432 -6 -40 -16 -41 -110 -12 -360 111 -586 468 -521 825
29 158 93 279 213 400 69 70 95 89 185 132 102 50 217 82 294 82 29 0 35 4 36
23 l0 22 9 -22 c7 -18 17 -23 44 -23 34 0 34 0 60 82 66 203 220 359 419 424
69 23 100 27 192 27 138 0 232 -28 359 -108 49 -30 91 -55 95 -55 4 0 17 46
30 103 42 187 117 331 240 460 143 150 295 235 502 282 84 19 320 14 404 -9z
m1781 -101 c250 -44 474 -159 664 -342 199 -190 322 -417 377 -691 31 -156 21
-391 -23 -568 l-7 -26 74 7 c153 14 344 -26 504 -105 464 -229 681 -771 501
-1251 -51 -137 -118 -241 -226 -350 -142 -144 -287 -229 -485 -282 l-80 -22
-2215 -2 c-2393 -4 -2293 -5 -2453 48 -463 154 -753 617 -686 1095 24 172 101
350 213 490 191 239 466 373 773 377 l112 2 11 45 c73 290 304 536 590 628
266 86 527 44 782 -125 37 -26 70 -44 73 -42 2 3 13 45 24 95 114 525 501 911
1016 1014 117 24 339 26 461 5z"/>
<path d="M7840 7535 l0 -85 80 0 80 0 0 85 0 85 -80 0 -80 0 0 -85z"/>
<path d="M7840 7230 l0 -80 80 0 80 0 0 80 0 80 -80 0 -80 0 0 -80z"/>
<path d="M8120 7230 l0 -80 75 0 75 0 0 80 0 80 -75 0 -75 0 0 -80z"/>
<path d="M7840 6905 l0 -85 80 0 80 0 0 85 0 85 -80 0 -80 0 0 -85z"/>
<path d="M8120 6905 l0 -85 75 0 75 0 0 85 0 85 -75 0 -75 0 0 -85z"/>
<path d="M8420 6905 l0 -85 80 0 80 0 0 85 0 85 -80 0 -80 0 0 -85z"/>
<path d="M4760 4545 l0 -85 80 0 80 0 0 85 0 85 -80 0 -80 0 0 -85z"/>
<path d="M5040 4545 l0 -85 85 0 85 0 0 85 0 85 -85 0 -85 0 0 -85z"/>
<path d="M6252 3388 c-84 -227 -152 -417 -152 -422 0 -5 76 -7 175 -4 96 3
175 4 175 2 0 -1 -65 -181 -145 -400 -80 -218 -145 -397 -143 -398 20 -14 154
-54 159 -49 4 5 77 199 162 433 86 234 169 463 187 509 l31 84 -180 -5 -179
-5 13 36 c7 20 56 154 109 299 53 144 96 265 96 270 0 4 -28 17 -62 29 -35 12
-70 24 -79 28 -13 5 -43 -69 -167 -407z"/>
<path d="M4735 3563 c-33 -103 -60 -191 -60 -197 0 -13 145 -60 155 -50 9 11
133 384 129 388 -9 7 -134 46 -148 46 -12 0 -32 -51 -76 -187z"/>
<path d="M5547 3556 l-65 -195 80 -27 c43 -14 81 -24 82 -23 6 7 126 374 126
385 0 9 -121 54 -147 54 -6 0 -40 -88 -76 -194z"/>
<path d="M7550 3565 c-34 -102 -60 -191 -57 -198 4 -10 127 -57 150 -57 7 0
127 364 127 384 0 11 -120 56 -147 56 -6 0 -39 -83 -73 -185z"/>
<path d="M8380 3565 c-34 -102 -60 -191 -57 -198 4 -10 127 -57 150 -57 6 0
127 365 127 385 0 10 -121 55 -147 55 -6 0 -39 -83 -73 -185z"/>
<path d="M4539 2972 c-34 -103 -64 -192 -66 -198 -5 -14 148 -68 158 -56 9 10
132 382 128 386 -2 2 -39 15 -81 29 l-77 25 -62 -186z"/>
<path d="M5351 2970 c-34 -105 -61 -196 -58 -203 5 -13 145 -62 153 -54 6 6
134 390 131 392 -1 1 -33 13 -72 25 -38 13 -75 25 -80 27 -6 2 -39 -82 -74
-187z"/>
<path d="M7352 2964 c-35 -108 -60 -200 -55 -204 12 -11 143 -53 149 -47 6 6
135 390 131 392 -1 1 -33 13 -72 25 -38 13 -74 24 -80 26 -5 2 -38 -84 -73
-192z"/>
<path d="M8182 2964 c-35 -108 -60 -200 -55 -204 12 -11 143 -53 149 -47 6 6
135 390 131 392 -1 1 -33 13 -72 25 -38 13 -74 24 -80 26 -5 2 -38 -84 -73
-192z"/>
<path d="M4336 2364 c-36 -109 -65 -198 -63 -199 6 -5 161 -55 162 -52 6 7
125 374 125 384 0 6 -30 21 -67 34 -38 12 -73 24 -79 26 -8 3 -37 -71 -78
-193z"/>
<path d="M5214 2547 c-15 -41 -124 -373 -124 -378 0 -8 151 -61 157 -55 5 5
133 389 130 391 -1 1 -37 14 -80 28 -56 19 -79 23 -83 14z"/>
<path d="M7215 2547 c-16 -41 -125 -373 -125 -378 0 -4 30 -17 68 -30 37 -12
72 -24 78 -26 8 -3 36 67 74 184 35 103 65 193 67 199 4 10 -24 21 -145 60 -7
2 -15 -2 -17 -9z"/>
<path d="M8045 2547 c-16 -41 -125 -373 -125 -378 0 -4 30 -17 68 -30 37 -12
72 -24 78 -26 8 -3 36 67 74 184 35 103 65 193 67 199 4 10 -24 21 -145 60 -7
2 -15 -2 -17 -9z"/>
<path d="M11010 1995 l0 -115 75 0 75 0 0 115 0 115 -75 0 -75 0 0 -115z"/>
<path d="M1740 1845 l0 -115 75 0 75 0 0 115 0 115 -75 0 -75 0 0 -115z"/>
<path d="M10770 1805 l0 -75 115 0 115 0 0 75 0 75 -115 0 -115 0 0 -75z"/>
<path d="M11170 1805 l0 -75 110 0 110 0 0 75 0 75 -110 0 -110 0 0 -75z"/>
<path d="M1510 1655 l0 -75 110 0 110 0 0 75 0 75 -110 0 -110 0 0 -75z"/>
<path d="M1900 1650 l0 -70 110 0 110 0 0 70 0 70 -110 0 -110 0 0 -70z"/>
<path d="M11010 1610 l0 -110 75 0 75 0 0 110 0 110 -75 0 -75 0 0 -110z"/>
<path d="M1740 1460 l0 -110 75 0 75 0 0 110 0 110 -75 0 -75 0 0 -110z"/>
<path d="M9780 1445 l0 -65 70 0 70 0 0 65 0 65 -70 0 -70 0 0 -65z"/>
<path d="M9777 1235 c-4 -55 -14 -94 -38 -146 -56 -122 -154 -185 -306 -196
l-73 -6 0 -62 0 -62 73 -6 c205 -16 330 -141 345 -344 l5 -73 69 0 c64 0 69 2
63 19 -10 34 15 154 45 218 54 110 152 171 291 180 l79 6 0 63 0 63 -57 6
c-32 3 -88 15 -124 25 -139 41 -229 173 -229 338 l0 52 -69 0 -68 0 -6 -75z
m106 -296 c16 -22 48 -54 73 -72 24 -18 43 -34 43 -37 0 -3 -18 -18 -40 -34
-22 -15 -56 -50 -76 -76 l-36 -48 -39 49 c-21 27 -56 61 -78 75 l-39 26 49 39
c28 22 62 57 76 79 15 22 29 40 33 40 3 0 19 -18 34 -41z"/>
<path d="M10400 830 l0 -70 65 0 65 0 0 70 0 70 -65 0 -65 0 0 -70z"/>
<path d="M9160 825 l0 -65 65 0 65 0 0 65 0 65 -65 0 -65 0 0 -65z"/>
<path d="M2302 697 c-29 -29 -52 -57 -52 -63 0 -5 25 -34 55 -64 l55 -54 55
54 c30 30 55 59 55 65 0 10 -101 115 -111 115 -2 0 -28 -24 -57 -53z"/>
<path d="M2142 537 c-29 -29 -52 -57 -52 -63 0 -5 25 -34 55 -64 l55 -54 55
54 c30 30 55 59 55 65 0 10 -101 115 -111 115 -2 0 -28 -24 -57 -53z"/>
<path d="M2467 532 l-57 -58 60 -59 60 -60 57 58 58 57 -60 60 -60 60 -58 -58z"/>
<path d="M2307 372 l-57 -58 60 -59 60 -59 55 54 c30 30 55 59 55 65 0 10
-101 115 -111 115 -2 0 -30 -26 -62 -58z"/>
<path d="M9770 241 c0 -10 3 -39 6 -65 l7 -46 63 0 64 0 0 65 0 65 -70 0 c-62
0 -70 -2 -70 -19z"/>
</g>
</svg>
