<?xml version="1.0" standalone="no"?>
<!DOCTYPE svg PUBLIC "-//W3C//DTD SVG 20010904//EN"
 "http://www.w3.org/TR/2001/REC-SVG-20010904/DTD/svg10.dtd">
<svg version="1.0" xmlns="http://www.w3.org/2000/svg"
 width="1280.000000pt" height="1027.000000pt" viewBox="0 0 1280.000000 1027.000000"
 preserveAspectRatio="xMidYMid meet">
<metadata>
Created by potrace 1.16, written by Peter Selinger 2001-2019
</metadata>
<g transform="translate(0.000000,1027.000000) scale(0.100000,-0.100000)"
fill="#000000" stroke="none">
<path d="M3260 10060 l0 -110 75 0 75 0 0 110 0 110 -75 0 -75 0 0 -110z"/>
<path d="M10400 9950 l0 -110 75 0 75 0 0 110 0 110 -75 0 -75 0 0 -110z"/>
<path d="M3030 9865 l0 -75 110 0 110 0 0 75 0 75 -110 0 -110 0 0 -75z"/>
<path d="M3420 9865 l0 -75 110 0 110 0 0 75 0 75 -110 0 -110 0 0 -75z"/>
<path d="M10160 9755 l0 -75 110 0 110 0 0 75 0 75 -110 0 -110 0 0 -75z"/>
<path d="M10550 9755 l0 -75 115 0 115 0 0 75 0 75 -115 0 -115 0 0 -75z"/>
<path d="M3260 9670 l0 -110 75 0 75 0 0 110 0 110 -75 0 -75 0 0 -110z"/>
<path d="M10390 9560 l0 -110 75 0 75 0 0 110 0 110 -75 0 -75 0 0 -110z"/>
<path d="M2040 9505 l0 -65 65 0 65 0 0 65 0 65 -65 0 -65 0 0 -65z"/>
<path d="M2028 9296 c-5 -80 -42 -174 -92 -233 -45 -54 -144 -96 -237 -101
l-79 -5 0 -67 0 -68 73 -4 c198 -12 324 -136 335 -330 l5 -78 67 0 67 0 5 78
c3 59 12 92 36 142 59 124 146 181 288 188 l84 5 0 52 c0 30 3 60 6 69 5 13
-2 16 -39 16 -104 0 -216 41 -276 101 -59 58 -101 172 -101 269 l0 40 -69 0
-68 0 -5 -74z m172 -359 c24 -20 48 -37 53 -37 6 0 -8 -13 -30 -29 -40 -29
-113 -108 -113 -123 0 -19 -19 -5 -43 31 -14 21 -46 54 -71 72 -26 18 -46 35
-46 38 0 3 16 17 36 31 20 13 55 48 76 77 l40 53 28 -38 c15 -21 47 -55 70
-75z"/>
<path d="M1410 8890 l0 -70 65 0 65 0 0 70 0 70 -65 0 -65 0 0 -70z"/>
<path d="M2650 8895 l0 -65 65 0 65 0 0 65 0 65 -65 0 -65 0 0 -65z"/>
<path d="M10952 8797 c-29 -29 -52 -57 -52 -63 0 -5 25 -34 55 -64 l55 -54 55
54 c30 30 55 59 55 65 0 10 -101 115 -111 115 -2 0 -28 -24 -57 -53z"/>
<path d="M10790 8635 l-54 -55 59 -60 59 -60 53 52 c29 29 53 57 53 63 0 10
-101 115 -111 115 -2 0 -29 -25 -59 -55z"/>
<path d="M11117 8632 l-57 -58 58 -57 58 -57 59 60 59 60 -54 55 c-30 30 -57
55 -60 55 -3 0 -31 -26 -63 -58z"/>
<path d="M10962 8477 c-29 -29 -52 -57 -52 -63 0 -13 93 -104 106 -104 5 0 34
25 64 55 l54 55 -54 55 c-30 30 -57 55 -60 55 -3 0 -29 -24 -58 -53z"/>
<path d="M2030 8255 l0 -65 65 0 65 0 0 65 0 65 -65 0 -65 0 0 -65z"/>
<path d="M7561 8140 c-203 -43 -367 -163 -456 -332 -24 -46 -41 -68 -50 -64
-8 3 -42 10 -76 16 -193 35 -407 -69 -499 -242 -22 -43 -26 -46 -84 -56 -90
-17 -198 -74 -265 -141 -97 -97 -147 -206 -158 -343 -19 -239 131 -470 351
-540 101 -33 106 -36 106 -61 0 -13 8 -48 19 -78 78 -229 243 -386 476 -455
56 -17 143 -18 1265 -21 756 -3 1235 0 1286 6 267 33 473 195 567 445 26 69
31 99 34 201 4 89 1 138 -11 190 -60 253 -267 457 -520 509 l-59 12 -3 86 c-9
263 -114 479 -309 635 -248 199 -607 238 -889 97 -38 -20 -82 -44 -96 -54
l-27 -19 -29 30 c-54 57 -172 127 -257 154 -91 29 -241 41 -316 25z m201 -171
c73 -15 166 -62 224 -113 l49 -43 -31 -35 c-39 -44 -97 -140 -120 -196 -14
-37 -20 -43 -38 -38 -117 34 -146 38 -246 34 -79 -4 -123 -11 -180 -31 -143
-51 -273 -163 -340 -297 -28 -55 -31 -58 -76 -65 -154 -23 -277 -86 -391 -200
-93 -94 -151 -198 -179 -323 -11 -48 -21 -72 -30 -72 -22 0 -105 46 -140 77
-49 44 -81 93 -104 163 -58 170 28 359 198 438 44 21 76 27 144 30 l86 4 6 31
c19 98 93 193 180 232 114 52 203 42 322 -36 42 -28 80 -47 84 -42 3 4 14 43
23 85 22 105 59 179 128 252 114 123 277 177 431 145z m1068 -75 c204 -60 374
-220 446 -418 31 -87 45 -204 34 -291 -5 -38 -9 -91 -10 -117 l0 -48 81 0
c150 0 280 -51 379 -150 98 -98 150 -225 150 -366 0 -222 -140 -412 -360 -487
l-65 -22 -1195 -3 c-807 -2 -1218 1 -1265 8 -221 33 -404 219 -436 442 -36
250 134 497 388 563 31 8 72 15 90 15 20 0 33 5 33 13 0 9 2 9 9 -1 5 -8 21
-12 41 -10 30 3 33 7 54 74 40 124 125 221 244 277 56 26 82 32 157 35 111 5
183 -17 294 -88 l76 -49 27 109 c33 137 84 234 168 324 102 108 205 167 355
202 74 17 228 11 305 -12z"/>
<path d="M5180 5703 c-312 -55 -598 -281 -720 -569 -15 -35 -29 -66 -31 -69
-3 -2 -38 6 -79 20 -189 59 -406 34 -578 -67 -94 -55 -211 -179 -261 -279
l-44 -85 -82 -11 c-307 -42 -566 -277 -645 -587 -28 -109 -28 -283 0 -391 70
-274 281 -491 550 -564 41 -11 87 -23 101 -26 23 -4 27 -12 38 -74 78 -434
423 -771 858 -836 145 -22 3799 -22 3944 0 332 50 616 258 764 560 84 170 100
244 100 455 0 207 -16 282 -94 445 -88 185 -230 340 -401 441 -124 73 -221
105 -425 140 -19 3 -20 11 -21 161 0 113 -5 182 -18 243 -97 451 -411 805
-844 950 -244 82 -547 81 -797 -2 -104 -35 -260 -113 -330 -166 l-48 -37 -76
76 c-230 230 -542 328 -861 272z m290 -164 c185 -30 377 -135 485 -267 l27
-32 -49 -58 c-94 -108 -183 -261 -228 -389 -11 -29 -22 -53 -26 -53 -4 0 -29
9 -56 21 -143 61 -381 82 -540 46 -286 -63 -536 -269 -647 -530 l-28 -65 -67
-7 c-242 -26 -494 -150 -652 -322 -142 -156 -243 -373 -266 -574 l-8 -66 -55
14 c-220 56 -398 232 -454 450 -21 78 -21 228 0 306 33 128 116 254 221 337
93 73 243 130 343 130 34 0 40 3 41 23 l2 22 4 -22 c4 -19 11 -23 42 -23 l38
0 17 62 c42 151 144 276 283 345 184 93 369 79 554 -41 82 -54 99 -59 99 -30
0 39 46 196 76 262 149 325 500 517 844 461z m1537 -90 c250 -28 482 -138 658
-314 247 -246 363 -595 311 -938 -9 -59 -16 -120 -16 -135 l0 -27 123 -1 c143
0 221 -17 345 -75 223 -103 382 -280 463 -517 33 -95 34 -101 34 -262 0 -161
-1 -167 -34 -262 -98 -286 -320 -493 -611 -570 l-85 -23 -1945 0 -1945 0 -88
28 c-249 78 -433 231 -544 452 -221 437 -11 983 450 1171 80 32 225 64 293 64
25 0 34 5 35 18 1 16 2 16 6 0 3 -13 15 -18 43 -18 l38 0 22 73 c65 214 215
387 414 477 237 108 491 84 729 -66 48 -31 90 -55 91 -53 2 2 17 58 33 124 39
155 80 251 155 367 144 218 368 381 623 453 150 42 254 51 402 34z"/>
<path d="M7210 5095 l0 -85 70 0 70 0 0 85 0 85 -70 0 -70 0 0 -85z"/>
<path d="M7210 4835 l0 -85 70 0 70 0 0 85 0 85 -70 0 -70 0 0 -85z"/>
<path d="M7450 4835 l0 -85 65 0 65 0 0 85 0 85 -65 0 -65 0 0 -85z"/>
<path d="M7210 4555 l0 -85 70 0 70 0 0 85 0 85 -70 0 -70 0 0 -85z"/>
<path d="M7450 4555 l0 -85 65 0 65 0 0 85 0 85 -65 0 -65 0 0 -85z"/>
<path d="M7710 4555 l0 -85 70 0 70 0 0 85 0 85 -70 0 -70 0 0 -85z"/>
<path d="M4550 2515 l0 -85 70 0 70 0 0 85 0 85 -70 0 -70 0 0 -85z"/>
<path d="M4790 2515 l0 -85 70 0 70 0 0 85 0 85 -70 0 -70 0 0 -85z"/>
<path d="M11010 1995 l0 -115 75 0 75 0 0 115 0 115 -75 0 -75 0 0 -115z"/>
<path d="M1740 1845 l0 -115 75 0 75 0 0 115 0 115 -75 0 -75 0 0 -115z"/>
<path d="M10770 1805 l0 -75 115 0 115 0 0 75 0 75 -115 0 -115 0 0 -75z"/>
<path d="M11170 1805 l0 -75 110 0 110 0 0 75 0 75 -110 0 -110 0 0 -75z"/>
<path d="M1510 1655 l0 -75 110 0 110 0 0 75 0 75 -110 0 -110 0 0 -75z"/>
<path d="M1900 1650 l0 -70 110 0 110 0 0 70 0 70 -110 0 -110 0 0 -70z"/>
<path d="M11010 1610 l0 -110 75 0 75 0 0 110 0 110 -75 0 -75 0 0 -110z"/>
<path d="M1740 1460 l0 -110 75 0 75 0 0 110 0 110 -75 0 -75 0 0 -110z"/>
<path d="M9780 1445 l0 -65 70 0 70 0 0 65 0 65 -70 0 -70 0 0 -65z"/>
<path d="M9777 1235 c-4 -55 -14 -94 -38 -146 -56 -122 -154 -185 -306 -196
l-73 -6 0 -62 0 -62 73 -6 c205 -16 330 -141 345 -344 l5 -73 69 0 c64 0 69 2
63 19 -10 34 15 154 45 218 54 110 152 171 291 180 l79 6 0 63 0 63 -57 6
c-32 3 -88 15 -124 25 -139 41 -229 173 -229 338 l0 52 -69 0 -68 0 -6 -75z
m106 -296 c16 -22 48 -54 73 -72 24 -18 43 -34 43 -37 0 -3 -18 -18 -40 -34
-22 -15 -56 -50 -76 -76 l-36 -48 -39 49 c-21 27 -56 61 -78 75 l-39 26 49 39
c28 22 62 57 76 79 15 22 29 40 33 40 3 0 19 -18 34 -41z"/>
<path d="M10400 830 l0 -70 65 0 65 0 0 70 0 70 -65 0 -65 0 0 -70z"/>
<path d="M9160 825 l0 -65 65 0 65 0 0 65 0 65 -65 0 -65 0 0 -65z"/>
<path d="M2302 697 c-29 -29 -52 -57 -52 -63 0 -5 25 -34 55 -64 l55 -54 55
54 c30 30 55 59 55 65 0 10 -101 115 -111 115 -2 0 -28 -24 -57 -53z"/>
<path d="M2142 537 c-29 -29 -52 -57 -52 -63 0 -5 25 -34 55 -64 l55 -54 55
54 c30 30 55 59 55 65 0 10 -101 115 -111 115 -2 0 -28 -24 -57 -53z"/>
<path d="M2467 532 l-57 -58 60 -59 60 -60 57 58 58 57 -60 60 -60 60 -58 -58z"/>
<path d="M2307 372 l-57 -58 60 -59 60 -59 55 54 c30 30 55 59 55 65 0 10
-101 115 -111 115 -2 0 -30 -26 -62 -58z"/>
<path d="M9770 241 c0 -10 3 -39 6 -65 l7 -46 63 0 64 0 0 65 0 65 -70 0 c-62
0 -70 -2 -70 -19z"/>
</g>
</svg>
