<?xml version="1.0" standalone="no"?>
<!DOCTYPE svg PUBLIC "-//W3C//DTD SVG 20010904//EN"
 "http://www.w3.org/TR/2001/REC-SVG-20010904/DTD/svg10.dtd">
<svg version="1.0" xmlns="http://www.w3.org/2000/svg"
 width="1278.000000pt" height="1032.000000pt" viewBox="0 0 1278.000000 1032.000000"
 preserveAspectRatio="xMidYMid meet">
<metadata>
Created by potrace 1.16, written by Peter Selinger 2001-2019
</metadata>
<g transform="translate(0.000000,1032.000000) scale(0.100000,-0.100000)"
fill="#000000" stroke="none">
<path d="M3260 10110 l0 -110 75 0 75 0 0 110 0 110 -75 0 -75 0 0 -110z"/>
<path d="M10400 10000 l0 -110 75 0 75 0 0 110 0 110 -75 0 -75 0 0 -110z"/>
<path d="M3030 9915 l0 -75 110 0 110 0 0 75 0 75 -110 0 -110 0 0 -75z"/>
<path d="M3420 9915 l0 -75 110 0 110 0 0 75 0 75 -110 0 -110 0 0 -75z"/>
<path d="M10160 9805 l0 -75 110 0 110 0 0 75 0 75 -110 0 -110 0 0 -75z"/>
<path d="M10550 9805 l0 -75 115 0 115 0 0 75 0 75 -115 0 -115 0 0 -75z"/>
<path d="M3260 9720 l0 -110 75 0 75 0 0 110 0 110 -75 0 -75 0 0 -110z"/>
<path d="M10390 9610 l0 -110 75 0 75 0 0 110 0 110 -75 0 -75 0 0 -110z"/>
<path d="M2040 9555 l0 -65 65 0 65 0 0 65 0 65 -65 0 -65 0 0 -65z"/>
<path d="M2026 9389 c-3 -17 -6 -42 -6 -56 0 -37 -38 -140 -68 -186 -48 -72
-141 -117 -274 -132 l-58 -6 0 -70 c0 -38 3 -69 8 -69 112 -5 228 -42 288 -93
52 -44 93 -135 104 -229 6 -46 10 -84 10 -85 0 -7 140 -2 140 5 5 74 23 161
42 204 55 119 133 173 276 189 47 5 87 11 89 13 2 2 6 33 10 69 l6 65 -59 7
c-232 27 -329 123 -359 358 l-6 47 -68 0 -68 0 -7 -31z m143 -378 l69 -70 -49
-41 c-26 -22 -56 -54 -66 -70 -9 -17 -20 -30 -23 -30 -3 0 -18 18 -34 40 -17
22 -47 52 -68 66 -21 15 -38 29 -38 33 0 3 15 17 33 30 18 13 48 43 67 67 19
24 36 44 38 44 2 0 34 -31 71 -69z"/>
<path d="M1410 8940 l0 -70 65 0 65 0 0 70 0 70 -65 0 -65 0 0 -70z"/>
<path d="M2650 8945 l0 -65 65 0 65 0 0 65 0 65 -65 0 -65 0 0 -65z"/>
<path d="M10946 8850 c-25 -27 -46 -57 -46 -67 0 -10 25 -43 55 -73 l56 -55
54 57 c30 31 55 64 55 73 0 22 -89 115 -110 115 -9 0 -38 -22 -64 -50z"/>
<path d="M10780 8685 l-54 -55 59 -60 c33 -33 65 -60 71 -60 17 0 104 96 104
115 0 22 -89 115 -109 115 -9 0 -41 -25 -71 -55z"/>
<path d="M11112 8687 c-29 -29 -52 -57 -52 -63 0 -13 103 -114 116 -114 5 0
36 27 69 60 l59 60 -54 55 c-30 30 -61 55 -70 55 -9 0 -39 -24 -68 -53z"/>
<path d="M10956 8530 c-25 -27 -46 -58 -46 -68 0 -24 83 -102 108 -102 10 0
42 25 72 55 l54 55 -54 55 c-30 30 -62 55 -71 55 -9 0 -37 -22 -63 -50z"/>
<path d="M2030 8305 l0 -65 65 0 65 0 0 65 0 65 -65 0 -65 0 0 -65z"/>
<path d="M4790 7715 l0 -235 65 0 65 0 0 235 0 235 -65 0 -65 0 0 -235z"/>
<path d="M4058 7798 c-27 -11 -48 -26 -48 -32 -1 -24 176 -436 186 -436 20 0
114 42 114 52 0 17 -93 253 -136 346 -23 50 -49 92 -56 92 -7 -1 -34 -10 -60
-22z"/>
<path d="M5497 7611 c-48 -115 -87 -216 -87 -224 0 -13 88 -57 114 -57 16 0
195 434 184 446 -8 7 -101 44 -112 44 -7 0 -51 -94 -99 -209z"/>
<path d="M3392 7357 c-18 -18 -32 -41 -32 -51 0 -11 72 -91 165 -185 l164
-166 53 53 53 53 -167 164 c-97 96 -174 165 -185 165 -11 0 -33 -15 -51 -33z"/>
<path d="M6090 7225 l-165 -165 53 -52 52 -53 172 172 173 173 -45 45 c-24 25
-51 45 -60 45 -8 0 -89 -74 -180 -165z"/>
<path d="M4810 7124 c-319 -30 -617 -175 -838 -408 -169 -179 -275 -384 -329
-636 -25 -118 -25 -410 0 -527 51 -236 151 -433 316 -622 l56 -63 89 7 c49 4
99 10 110 15 15 5 33 35 56 91 67 163 211 347 359 460 36 28 116 74 176 104
299 148 618 153 938 13 38 -16 74 -27 81 -25 7 3 25 40 40 84 61 173 153 337
274 487 l55 69 -22 69 c-118 365 -442 691 -808 814 -152 51 -402 82 -553 68z"/>
<path d="M6511 6775 c-113 -41 -206 -77 -209 -80 -10 -10 34 -120 49 -123 9
-2 112 32 228 74 234 87 228 81 191 162 -12 27 -25 42 -37 42 -10 0 -110 -34
-222 -75z"/>
<path d="M2954 6703 c-36 -88 -38 -85 83 -136 123 -52 319 -127 331 -127 8 0
52 97 52 115 0 10 -414 185 -437 185 -7 0 -20 -17 -29 -37z"/>
<path d="M7065 6546 c-495 -96 -909 -435 -1083 -888 -17 -42 -42 -123 -57
-180 -15 -57 -28 -104 -29 -106 -2 -1 -63 29 -137 66 -160 81 -273 113 -431
120 -362 16 -685 -150 -884 -453 -51 -79 -115 -219 -129 -282 -6 -30 -9 -32
-58 -37 -226 -21 -281 -29 -347 -47 -165 -46 -350 -153 -474 -274 -380 -371
-455 -951 -182 -1415 137 -233 374 -412 665 -504 l114 -36 2485 0 c2483 0
2485 0 2556 21 227 66 375 149 524 293 175 170 278 356 326 590 21 97 21 335
1 447 -49 279 -222 546 -465 718 -183 129 -342 182 -602 200 -72 5 -132 11
-134 13 -2 2 2 22 9 44 8 26 12 124 12 299 -1 285 -3 298 -82 510 -160 430
-524 755 -982 877 -110 29 -127 31 -331 34 -151 2 -236 -1 -285 -10z m785
-461 l0 -55 -75 0 -75 0 0 55 0 55 75 0 75 0 0 -55z m0 -335 l0 -60 -75 0 -75
0 0 60 0 60 75 0 75 0 0 -60z m300 0 l0 -60 -75 0 -75 0 0 60 0 60 75 0 75 0
0 -60z m-300 -355 l0 -55 -75 0 -75 0 0 55 0 55 75 0 75 0 0 -55z m300 0 l0
-55 -75 0 -75 0 0 55 0 55 75 0 75 0 0 -55z m330 0 l0 -55 -75 0 -75 0 0 55 0
55 75 0 75 0 0 -55z m-4180 -2515 l0 -60 -65 0 -65 0 0 60 0 60 65 0 65 0 0
-60z m280 0 l0 -60 -70 0 -70 0 0 60 0 60 70 0 70 0 0 -60z"/>
<path d="M2790 5885 l0 -65 240 0 240 0 0 65 0 65 -240 0 -240 0 0 -65z"/>
<path d="M3137 5255 c-110 -46 -201 -86 -205 -89 -10 -10 29 -117 44 -123 15
-5 177 59 352 138 91 42 94 47 62 117 -12 27 -25 42 -37 41 -10 0 -107 -38
-216 -84z"/>
<path d="M11010 2045 l0 -115 75 0 75 0 0 115 0 115 -75 0 -75 0 0 -115z"/>
<path d="M1740 1895 l0 -115 75 0 75 0 0 115 0 115 -75 0 -75 0 0 -115z"/>
<path d="M10770 1855 l0 -75 115 0 115 0 0 75 0 75 -115 0 -115 0 0 -75z"/>
<path d="M11170 1855 l0 -75 110 0 110 0 0 75 0 75 -110 0 -110 0 0 -75z"/>
<path d="M1510 1705 l0 -75 110 0 110 0 0 75 0 75 -110 0 -110 0 0 -75z"/>
<path d="M1900 1700 l0 -70 110 0 110 0 0 70 0 70 -110 0 -110 0 0 -70z"/>
<path d="M11010 1660 l0 -110 75 0 75 0 0 110 0 110 -75 0 -75 0 0 -110z"/>
<path d="M1740 1510 l0 -110 75 0 75 0 0 110 0 110 -75 0 -75 0 0 -110z"/>
<path d="M9780 1495 l0 -65 70 0 70 0 0 65 0 65 -70 0 -70 0 0 -65z"/>
<path d="M9776 1338 c-3 -13 -6 -38 -6 -55 0 -51 -38 -153 -76 -205 -55 -77
-136 -115 -286 -133 l-48 -6 0 -64 0 -64 48 -6 c228 -29 336 -126 362 -327 5
-40 10 -76 10 -80 0 -5 31 -8 69 -8 l68 0 6 68 c3 37 15 92 27 123 53 143 138
200 333 224 l48 6 -3 67 -3 67 -60 7 c-151 19 -237 71 -293 176 -28 53 -50
145 -52 220 0 8 -21 12 -69 12 -63 0 -69 -2 -75 -22z m84 -326 c0 -11 67 -82
104 -110 l30 -23 -25 -16 c-29 -21 -67 -58 -97 -97 l-23 -30 -52 56 c-29 30
-61 60 -72 66 -18 9 -14 15 48 76 37 36 67 70 67 76 0 5 5 10 10 10 6 0 10 -4
10 -8z"/>
<path d="M10400 880 l0 -70 65 0 65 0 0 70 0 70 -65 0 -65 0 0 -70z"/>
<path d="M9160 875 l0 -65 65 0 65 0 0 65 0 65 -65 0 -65 0 0 -65z"/>
<path d="M2296 750 c-25 -27 -46 -57 -46 -67 0 -10 25 -43 55 -73 l56 -55 54
57 c30 31 55 64 55 73 0 22 -89 115 -110 115 -9 0 -38 -22 -64 -50z"/>
<path d="M2136 590 c-25 -27 -46 -57 -46 -67 0 -10 25 -43 55 -73 l56 -55 54
57 c30 31 55 64 55 73 0 22 -89 115 -110 115 -9 0 -38 -22 -64 -50z"/>
<path d="M2462 587 c-29 -29 -52 -57 -52 -63 0 -5 27 -36 60 -69 l60 -60 62
63 63 62 -60 60 c-33 33 -64 60 -70 60 -6 0 -34 -24 -63 -53z"/>
<path d="M2302 427 c-29 -29 -52 -57 -52 -63 0 -5 27 -36 60 -69 l61 -60 54
57 c30 31 55 64 55 73 0 21 -88 115 -109 115 -9 0 -40 -24 -69 -53z"/>
<path d="M9770 261 c0 -78 3 -81 76 -81 l64 0 0 65 0 65 -70 0 -70 0 0 -49z"/>
</g>
</svg>
