<?xml version="1.0" standalone="no"?>
<!DOCTYPE svg PUBLIC "-//W3C//DTD SVG 20010904//EN"
 "http://www.w3.org/TR/2001/REC-SVG-20010904/DTD/svg10.dtd">
<svg version="1.0" xmlns="http://www.w3.org/2000/svg"
 width="1280.000000pt" height="1029.000000pt" viewBox="0 0 1280.000000 1029.000000"
 preserveAspectRatio="xMidYMid meet">
<metadata>
Created by potrace 1.16, written by Peter Selinger 2001-2019
</metadata>
<g transform="translate(0.000000,1029.000000) scale(0.100000,-0.100000)"
fill="#000000" stroke="none">
<path d="M3260 10080 l0 -110 75 0 75 0 0 110 0 110 -75 0 -75 0 0 -110z"/>
<path d="M10400 9970 l0 -110 75 0 75 0 0 110 0 110 -75 0 -75 0 0 -110z"/>
<path d="M3030 9885 l0 -75 110 0 110 0 0 75 0 75 -110 0 -110 0 0 -75z"/>
<path d="M3420 9885 l0 -75 110 0 110 0 0 75 0 75 -110 0 -110 0 0 -75z"/>
<path d="M10160 9775 l0 -75 110 0 110 0 0 75 0 75 -110 0 -110 0 0 -75z"/>
<path d="M10550 9775 l0 -75 115 0 115 0 0 75 0 75 -115 0 -115 0 0 -75z"/>
<path d="M3260 9690 l0 -110 75 0 75 0 0 110 0 110 -75 0 -75 0 0 -110z"/>
<path d="M10390 9580 l0 -110 75 0 75 0 0 110 0 110 -75 0 -75 0 0 -110z"/>
<path d="M2040 9525 l0 -65 65 0 65 0 0 65 0 65 -65 0 -65 0 0 -65z"/>
<path d="M2028 9316 c-5 -80 -42 -174 -92 -233 -45 -54 -144 -96 -237 -101
l-79 -5 0 -67 0 -68 73 -4 c198 -12 324 -136 335 -330 l5 -78 67 0 67 0 5 78
c3 59 12 92 36 142 59 124 146 181 288 188 l84 5 0 52 c0 30 3 60 6 69 5 13
-2 16 -39 16 -104 0 -216 41 -276 101 -59 58 -101 172 -101 269 l0 40 -69 0
-68 0 -5 -74z m172 -359 c24 -20 48 -37 53 -37 6 0 -8 -13 -30 -29 -40 -29
-113 -108 -113 -123 0 -19 -19 -5 -43 31 -14 21 -46 54 -71 72 -26 18 -46 35
-46 38 0 3 16 17 36 31 20 13 55 48 76 77 l40 53 28 -38 c15 -21 47 -55 70
-75z"/>
<path d="M1410 8910 l0 -70 65 0 65 0 0 70 0 70 -65 0 -65 0 0 -70z"/>
<path d="M2650 8915 l0 -65 65 0 65 0 0 65 0 65 -65 0 -65 0 0 -65z"/>
<path d="M10952 8817 c-29 -29 -52 -57 -52 -63 0 -5 25 -34 55 -64 l55 -54 55
54 c30 30 55 59 55 65 0 10 -101 115 -111 115 -2 0 -28 -24 -57 -53z"/>
<path d="M10790 8655 l-54 -55 59 -60 59 -60 53 52 c29 29 53 57 53 63 0 10
-101 115 -111 115 -2 0 -29 -25 -59 -55z"/>
<path d="M11117 8652 l-57 -58 58 -57 58 -57 59 60 59 60 -54 55 c-30 30 -57
55 -60 55 -3 0 -31 -26 -63 -58z"/>
<path d="M10962 8497 c-29 -29 -52 -57 -52 -63 0 -13 93 -104 106 -104 5 0 34
25 64 55 l54 55 -54 55 c-30 30 -57 55 -60 55 -3 0 -29 -24 -58 -53z"/>
<path d="M2030 8275 l0 -65 65 0 65 0 0 65 0 65 -65 0 -65 0 0 -65z"/>
<path d="M5612 7890 c-300 -42 -570 -200 -745 -435 -59 -79 -133 -216 -156
-287 -7 -21 -14 -38 -16 -38 -3 0 -27 9 -54 20 -96 37 -206 53 -330 47 -135
-7 -206 -24 -316 -77 -163 -78 -296 -211 -375 -374 l-40 -83 -68 -6 c-360 -34
-676 -311 -768 -675 -29 -114 -33 -298 -9 -411 57 -274 237 -504 488 -626 91
-44 226 -85 278 -85 25 0 27 -3 39 -77 78 -489 456 -874 951 -968 72 -13 340
-15 2316 -15 2220 0 2236 0 2336 21 390 79 719 356 861 725 95 246 103 551 20
799 -140 422 -513 733 -955 795 l-85 12 4 137 c5 153 -7 269 -43 411 -192 763
-976 1234 -1745 1048 -175 -42 -358 -125 -495 -223 l-72 -52 -62 68 c-148 164
-366 286 -594 335 -88 18 -280 26 -365 14z m264 -171 c207 -29 394 -121 538
-267 38 -39 73 -77 77 -85 6 -10 -8 -33 -48 -78 -111 -127 -219 -312 -275
-472 l-22 -65 -36 18 c-194 97 -477 121 -714 61 -92 -24 -239 -92 -323 -149
-160 -109 -289 -266 -369 -451 l-33 -76 -102 -12 c-515 -61 -927 -444 -1024
-954 -8 -45 -15 -99 -15 -121 l0 -39 -37 7 c-65 12 -189 59 -248 95 -166 100
-292 272 -339 462 -22 88 -22 246 0 335 55 223 208 407 418 502 78 35 128 49
223 60 44 5 79 14 84 22 7 10 9 9 9 -5 0 -15 7 -18 36 -15 35 3 37 5 58 73 56
178 173 319 326 393 109 54 184 72 290 72 137 0 258 -40 390 -130 34 -23 63
-40 65 -38 2 1 15 53 29 113 15 61 41 144 60 186 166 382 575 615 982 558z
m1844 -114 c472 -71 864 -391 1025 -835 44 -123 65 -236 71 -380 6 -128 1
-183 -32 -371 l-6 -36 143 -6 c176 -6 275 -29 414 -96 294 -141 496 -400 561
-722 23 -113 15 -331 -16 -444 -46 -171 -134 -321 -264 -451 -178 -177 -377
-269 -635 -294 -137 -13 -4216 -13 -4356 0 -238 22 -440 111 -609 270 -378
356 -427 925 -116 1338 103 138 217 229 384 308 120 57 240 85 395 93 l124 6
18 64 c44 154 127 289 251 406 98 93 197 152 323 194 258 86 510 53 755 -100
89 -55 110 -64 114 -51 2 10 12 53 21 97 112 525 535 926 1065 1010 114 18
255 18 370 0z"/>
<path d="M7910 7195 l0 -85 75 0 75 0 0 85 0 85 -75 0 -75 0 0 -85z"/>
<path d="M7910 6885 l0 -85 75 0 75 0 0 85 0 85 -75 0 -75 0 0 -85z"/>
<path d="M8180 6885 l0 -85 80 0 80 0 0 85 0 85 -80 0 -80 0 0 -85z"/>
<path d="M7910 6555 l0 -85 75 0 75 0 0 85 0 85 -75 0 -75 0 0 -85z"/>
<path d="M8180 6555 l0 -85 80 0 80 0 0 85 0 85 -80 0 -80 0 0 -85z"/>
<path d="M8490 6555 l0 -85 75 0 75 0 0 85 0 85 -75 0 -75 0 0 -85z"/>
<path d="M4830 4205 l0 -85 80 0 80 0 0 85 0 85 -80 0 -80 0 0 -85z"/>
<path d="M5110 4205 l0 -85 80 0 80 0 0 85 0 85 -80 0 -80 0 0 -85z"/>
<path d="M5010 3233 l0 -97 -70 69 -70 70 -62 -63 -63 -62 70 -70 69 -70 -97
0 -97 0 0 -85 0 -85 97 0 97 0 -69 -70 -70 -70 63 -62 62 -63 70 70 70 69 0
-97 0 -97 85 0 85 0 0 97 0 97 70 -69 70 -70 62 63 63 62 -70 70 -69 70 97 0
97 0 0 85 0 85 -97 0 -97 0 69 70 70 70 -63 62 -62 63 -70 -70 -70 -69 0 97 0
97 -85 0 -85 0 0 -97z"/>
<path d="M6270 3228 l0 -102 -73 72 -73 72 -59 -60 -59 -60 69 -70 69 -70 -97
0 -97 0 0 -85 0 -85 97 0 97 0 -69 -70 -69 -70 59 -60 59 -60 73 72 73 72 0
-102 0 -102 85 0 85 0 0 97 0 97 68 -67 68 -67 59 60 59 60 -69 70 -69 70 102
0 102 0 0 85 0 85 -102 0 -102 0 69 70 69 70 -59 60 -59 60 -68 -67 -68 -67 0
97 0 97 -85 0 -85 0 0 -102z"/>
<path d="M7620 3233 l0 -97 -70 69 -70 70 -62 -63 -63 -62 70 -70 69 -70 -97
0 -97 0 0 -85 0 -85 97 0 97 0 -69 -70 -70 -70 63 -62 62 -63 70 70 70 69 0
-97 0 -97 85 0 85 0 0 97 0 97 70 -69 70 -70 62 63 63 62 -70 70 -69 70 97 0
97 0 0 85 0 85 -97 0 -97 0 69 70 70 70 -63 62 -62 63 -70 -70 -70 -69 0 97 0
97 -85 0 -85 0 0 -97z"/>
<path d="M11010 2015 l0 -115 75 0 75 0 0 115 0 115 -75 0 -75 0 0 -115z"/>
<path d="M1740 1865 l0 -115 75 0 75 0 0 115 0 115 -75 0 -75 0 0 -115z"/>
<path d="M10770 1825 l0 -75 115 0 115 0 0 75 0 75 -115 0 -115 0 0 -75z"/>
<path d="M11170 1825 l0 -75 110 0 110 0 0 75 0 75 -110 0 -110 0 0 -75z"/>
<path d="M1510 1675 l0 -75 110 0 110 0 0 75 0 75 -110 0 -110 0 0 -75z"/>
<path d="M1900 1670 l0 -70 110 0 110 0 0 70 0 70 -110 0 -110 0 0 -70z"/>
<path d="M11010 1630 l0 -110 75 0 75 0 0 110 0 110 -75 0 -75 0 0 -110z"/>
<path d="M1740 1480 l0 -110 75 0 75 0 0 110 0 110 -75 0 -75 0 0 -110z"/>
<path d="M9780 1465 l0 -65 70 0 70 0 0 65 0 65 -70 0 -70 0 0 -65z"/>
<path d="M9777 1255 c-4 -55 -14 -94 -38 -146 -56 -122 -154 -185 -306 -196
l-73 -6 0 -62 0 -62 73 -6 c205 -16 330 -141 345 -344 l5 -73 69 0 c64 0 69 2
63 19 -10 34 15 154 45 218 54 110 152 171 291 180 l79 6 0 63 0 63 -57 6
c-32 3 -88 15 -124 25 -139 41 -229 173 -229 338 l0 52 -69 0 -68 0 -6 -75z
m106 -296 c16 -22 48 -54 73 -72 24 -18 43 -34 43 -37 0 -3 -18 -18 -40 -34
-22 -15 -56 -50 -76 -76 l-36 -48 -39 49 c-21 27 -56 61 -78 75 l-39 26 49 39
c28 22 62 57 76 79 15 22 29 40 33 40 3 0 19 -18 34 -41z"/>
<path d="M10400 850 l0 -70 65 0 65 0 0 70 0 70 -65 0 -65 0 0 -70z"/>
<path d="M9160 845 l0 -65 65 0 65 0 0 65 0 65 -65 0 -65 0 0 -65z"/>
<path d="M2302 717 c-29 -29 -52 -57 -52 -63 0 -5 25 -34 55 -64 l55 -54 55
54 c30 30 55 59 55 65 0 10 -101 115 -111 115 -2 0 -28 -24 -57 -53z"/>
<path d="M2142 557 c-29 -29 -52 -57 -52 -63 0 -5 25 -34 55 -64 l55 -54 55
54 c30 30 55 59 55 65 0 10 -101 115 -111 115 -2 0 -28 -24 -57 -53z"/>
<path d="M2467 552 l-57 -58 60 -59 60 -60 57 58 58 57 -60 60 -60 60 -58 -58z"/>
<path d="M2307 392 l-57 -58 60 -59 60 -59 55 54 c30 30 55 59 55 65 0 10
-101 115 -111 115 -2 0 -30 -26 -62 -58z"/>
<path d="M9770 261 c0 -10 3 -39 6 -65 l7 -46 63 0 64 0 0 65 0 65 -70 0 c-62
0 -70 -2 -70 -19z"/>
</g>
</svg>
