<?xml version="1.0" encoding="UTF-8"?>
<svg width="1200pt" height="1200pt" version="1.1" viewBox="0 0 1200 1200" xmlns="http://www.w3.org/2000/svg">
 <path d="m1053.3 305.06-155.9 90s30 51.961 30 51.961l155.9-90s-30-51.961-30-51.961zm-906.53 589.88 155.9-90s-30-51.961-30-51.961l-155.9 90s30 51.961 30 51.961zm158.33-748.2 90 155.9 51.961-30-90-155.9-51.961 30zm589.88 906.53-90-155.9-51.961 30 90 155.9 51.961-30zm-49.875-935.33-90 155.9 51.961 30 90-155.9-51.961-30zm-490.12 964.12 90-155.9-51.961-30-90 155.9 51.961 30zm-237-727.12 155.9 90s30-51.961 30-51.961l-155.9-90s-30 51.961-30 51.961zm964.12 490.12-155.9-90s-30 51.961-30 51.961l155.9 90s30-51.961 30-51.961zm-510.86-785.06v180h60v-180h-60zm57.602 1080v-180h-60v180h60zm-568.8-511.2h180v-60h-180v60zm1080-57.602h-180v60h180v-60zm-532.8-270.7c32.52-0.45703 75.574 8.6641 105.6 21.121 54.48 22.586 101.66 58.969 135 107.98 79.176 116.38 67.895 278.38-31.801 379.2-25.559 25.824-48.84 43.801-81.602 59.734-49.223 23.953-91.992 32.09-146.4 31.465-37.223-0.45703-81.602-12.406-115.2-28.105-139.03-64.922-208.49-227.93-155.88-372.7 31.488-86.617 97.512-152.73 184.68-183.14 24.266-8.4492 46.895-11.398 72-15.551h33.602z"/>
</svg>
